<svg xmlns="http://www.w3.org/2000/svg" xmlns:xlink="http://www.w3.org/1999/xlink" width="211.715" height="209.829" viewBox="0 0 211.715 209.829">
  <defs>
    <linearGradient id="linear-gradient" x1="-0.084" y1="-0.676" x2="1.406" y2="2.373" gradientUnits="objectBoundingBox">
      <stop offset="0" stop-color="#ff8d8d"/>
      <stop offset="1" stop-color="#ff928e"/>
    </linearGradient>
    <linearGradient id="linear-gradient-2" x1="28.06" y1="-4.813" x2="51.035" y2="-9.243" gradientUnits="objectBoundingBox">
      <stop offset="0" stop-color="#febbba"/>
      <stop offset="1" stop-color="#ff928e"/>
    </linearGradient>
    <linearGradient id="linear-gradient-3" x1="0.852" y1="-0.426" x2="1.236" y2="-1.425" xlink:href="#linear-gradient-2"/>
    <linearGradient id="linear-gradient-4" x1="-7.636" y1="2.226" x2="-10.066" y2="-1.529" gradientUnits="objectBoundingBox">
      <stop offset="0" stop-color="#fe7062"/>
      <stop offset="1" stop-color="#ff928e"/>
    </linearGradient>
    <linearGradient id="linear-gradient-5" x1="-7.964" y1="3.031" x2="-11.13" y2="-4.448" xlink:href="#linear-gradient-4"/>
    <linearGradient id="linear-gradient-6" x1="-7.552" y1="-0.007" x2="-6.903" y2="1.736" xlink:href="#linear-gradient-4"/>
    <linearGradient id="linear-gradient-7" x1="-29.146" y1="1.062" x2="-29.035" y2="0.1" xlink:href="#linear-gradient-2"/>
    <linearGradient id="linear-gradient-8" x1="-17.79" y1="0.82" x2="-18.101" y2="-0.114" xlink:href="#linear-gradient-2"/>
    <linearGradient id="linear-gradient-9" x1="-89.439" y1="2.058" x2="-90.912" y2="-0.895" xlink:href="#linear-gradient-2"/>
    <linearGradient id="linear-gradient-10" y1="0.5" x2="1" y2="0.5" gradientUnits="objectBoundingBox">
      <stop offset="0" stop-color="#e1473d"/>
      <stop offset="1" stop-color="#e9605a"/>
    </linearGradient>
    <linearGradient id="linear-gradient-13" x1="0" y1="0.5" x2="1" y2="0.5" xlink:href="#linear-gradient-2"/>
    <linearGradient id="linear-gradient-14" x1="0.59" y1="-0.035" x2="0.358" y2="1.564" xlink:href="#linear-gradient-2"/>
  </defs>
  <g id="Group_298" data-name="Group 298" transform="translate(-442.411 -455)">
    <path id="Path_275" data-name="Path 275" d="M739.272,610.558c-20.46,47.823-74.467,68.363-116.783,64.861-11.554-.956-34.8-2.88-52.952-20.045-34.858-32.964-29.49-101.869,3.88-142.436,4.3-5.224,34.042-40.226,80.395-39.758,33.936.343,57.756,19.513,60.653,21.9a93.421,93.421,0,0,1,19,21.56C750.555,543.366,752.057,580.674,739.272,610.558Z" transform="translate(-95.618 -16.814)" fill="#f9b9b9"/>
    <g id="Group_274" data-name="Group 274" transform="translate(442.411 465.414)">
      <path id="Path_276" data-name="Path 276" d="M442.453,595.1c-.273-.811.843-1.472,1.612-.96,7.81,5.205,26.9,21.2,25.441,52.4-1.831,39.155,8.813,52.382,21.223,59.9,0,0-16.315-2.551-27.683-15.92C435.137,657.7,447.3,609.53,442.453,595.1Z" transform="translate(-442.411 -593.96)" fill="#988149"/>
      <path id="Path_277" data-name="Path 277" d="M531.665,759.716c1.311,4.217,2.525,8.456,3.557,12.732q1.586,6.4,2.714,12.89c.73,4.324,1.367,8.661,1.788,13.02.444,4.357.671,8.73.882,13.123a118.935,118.935,0,0,0,1.185,13.215,39.331,39.331,0,0,0,4.32,12.785c.56,1,1.143,1.994,1.789,2.947.626.964,1.3,1.9,2,2.831a47.427,47.427,0,0,0,4.648,5.278,52.167,52.167,0,0,0,11.73,8.471,1.09,1.09,0,0,0,1.358-.285.772.772,0,0,0-.267-1.155l0,0c-1.033-.59-2.057-1.19-3.046-1.828-.5-.312-.983-.643-1.473-.966-.475-.339-.965-.661-1.427-1.013a47.321,47.321,0,0,1-13.35-15.119,38.391,38.391,0,0,1-2.63-5.97,42.254,42.254,0,0,1-1.588-6.289,117.631,117.631,0,0,1-1.278-13.032c-.282-4.386-.6-8.791-1.126-13.173q-.385-3.287-.906-6.557c-.167-1.091-.357-2.178-.546-3.265s-.408-2.169-.626-3.252q-1.321-6.491-3.1-12.885c-1.214-4.255-2.559-8.477-4.091-12.643a.267.267,0,0,0-.331-.141A.231.231,0,0,0,531.665,759.716Z" transform="translate(-524.968 -747.023)" fill="#fff"/>
    </g>
    <g id="Group_276" data-name="Group 276" transform="translate(463.99 455)">
      <g id="Group_275" data-name="Group 275" transform="translate(0 0)">
        <path id="Path_278" data-name="Path 278" d="M746.074,539.9a1.835,1.835,0,0,1-3.03.316,55.959,55.959,0,0,1-11.582-46.641c3.966-20.583,4.161-32.121,3.887-37.365a1.151,1.151,0,0,1,2.038-.79C745.168,464.886,768.01,498.086,746.074,539.9Z" transform="translate(-730.367 -455)" fill="#c49967"/>
        <path id="Path_279" data-name="Path 279" d="M845.235,834.774a.518.518,0,0,1-.092.034.509.509,0,0,1-.621-.363c-.081-.308-8.059-31.136-3.837-60.005a.509.509,0,0,1,1.007.147c-4.191,28.659,3.733,59.293,3.814,59.6A.509.509,0,0,1,845.235,834.774Z" transform="translate(-831.278 -750.1)" fill="#fff"/>
      </g>
    </g>
    <g id="Group_278" data-name="Group 278" transform="translate(442.869 523.093)">
      <path id="Path_280" data-name="Path 280" d="M612.1,1476.268a3.322,3.322,0,0,0,3.314,3.31H794.6a3.322,3.322,0,0,0,3.314-3.31l1.491-102.975a5.771,5.771,0,0,0-6.077-5.108l-175.124-4.531a8.35,8.35,0,0,0-8.568,8.54Z" transform="translate(-597.563 -1363.651)" fill="#4f5565"/>
      <path id="Path_281" data-name="Path 281" d="M655.326,1521.565a3.144,3.144,0,0,0,3.135,3.135H830.236a3.144,3.144,0,0,0,3.135-3.135l1.407-93.482a7.715,7.715,0,0,0-8.087-7.528l-167.84-4.5a5.869,5.869,0,0,0-6.021,6.006Z" transform="translate(-637.517 -1412.123)" fill="url(#linear-gradient)"/>
      <g id="Group_277" data-name="Group 277" transform="translate(133.511 8.776)">
        <path id="Path_282" data-name="Path 282" d="M3031.6,2126.512h-.007a.459.459,0,0,1-.453-.466l.111-7.581a.459.459,0,0,1,.459-.453h.007a.459.459,0,0,1,.453.466l-.111,7.581A.459.459,0,0,1,3031.6,2126.512Z" transform="translate(-2971.109 -2070.257)" fill="url(#linear-gradient-2)"/>
        <path id="Path_283" data-name="Path 283" d="M2290.883,1518.432h-.007a.459.459,0,0,1-.452-.466l.426-29.036a5.453,5.453,0,0,0-1.556-4.083,7.672,7.672,0,0,0-5.077-1.733l-53.645-1.439a.459.459,0,0,1-.447-.471.44.44,0,0,1,.472-.447l53.614,1.439a8.435,8.435,0,0,1,5.72,1.988,6.342,6.342,0,0,1,1.84,4.752l-.427,29.045A.46.46,0,0,1,2290.883,1518.432Z" transform="translate(-2230.124 -1480.755)" fill="url(#linear-gradient-3)"/>
      </g>
      <path id="Rectangle_107" data-name="Rectangle 107" d="M4.524,0h202.21a4.523,4.523,0,0,1,4.523,4.523v0a4.524,4.524,0,0,1-4.524,4.524H4.524A4.524,4.524,0,0,1,0,4.524v0A4.524,4.524,0,0,1,4.524,0Z" transform="translate(211.257 124.476) rotate(180)" fill="#4f5565"/>
    </g>
    <g id="Group_295" data-name="Group 295" transform="translate(485.91 483.503)">
      <g id="Group_279" data-name="Group 279" transform="translate(0 0)">
        <path id="Path_284" data-name="Path 284" d="M1028.969,835.356h123.863c3.377,0,6.1,3.872,6.036,8.592l-1.743,134.321c-.082,6.322-3.8,11.364-11.414,11.284l-119.965-2.1a14.2,14.2,0,0,1-2.872-8.444l.058-135.215C1022.934,839.131,1025.636,835.356,1028.969,835.356Z" transform="translate(-1022.874 -835.356)" fill="#4f5565"/>
        <path id="Path_285" data-name="Path 285" d="M1068.413,883.9H1187.35c3.243,0,5.855,3.679,5.8,8.164l-1.673,127.624c-.079,6.006-3.651,10.8-7.994,10.722l-115.195-2c-3.175-.055-5.727-3.632-5.725-8.023l.055-128.474C1062.617,887.482,1065.212,883.9,1068.413,883.9Z" transform="translate(-1059.586 -880.258)" fill="#f9b9b9"/>
      </g>
      <g id="Group_294" data-name="Group 294" transform="translate(2.974 3.238)">
        <path id="Path_286" data-name="Path 286" d="M1192.966,898.082H1062.56V880.505a1.941,1.941,0,0,1,1.941-1.941h126.632a1.832,1.832,0,0,1,1.832,1.832Z" transform="translate(-1062.56 -878.564)" fill="#eb9898"/>
        <path id="Path_287" data-name="Path 287" d="M1738.188,940.735l-67.655-.642a2.674,2.674,0,0,1-2.878-2.363v-2.256a2.051,2.051,0,0,1,2.228-1.808h68.791a1.886,1.886,0,0,1,2.081,1.818l-.325,3.58A2.092,2.092,0,0,1,1738.188,940.735Z" transform="translate(-1622.31 -929.538)" fill="#f9b9b9"/>
        <path id="Path_288" data-name="Path 288" d="M1243.3,1212.9H1124.876a1.42,1.42,0,0,1-1.423-1.417v-3.791a1.42,1.42,0,0,1,1.435-1.417l118.427,1.043a1.42,1.42,0,0,1,1.41,1.417v2.748A1.42,1.42,0,0,1,1243.3,1212.9Z" transform="translate(-1118.89 -1181.712)" fill="#f68484"/>
        <path id="Path_289" data-name="Path 289" d="M1476.612,933.985a3.523,3.523,0,1,1,3.524-3.524A3.527,3.527,0,0,1,1476.612,933.985Zm0-6.538a3.015,3.015,0,1,0,3.015,3.015A3.018,3.018,0,0,0,1476.612,927.447Z" transform="translate(-1442.324 -923.313)" fill="#fff"/>
        <path id="Path_290" data-name="Path 290" d="M1325.624,937.522a3.524,3.524,0,1,1,3.524-3.524A3.528,3.528,0,0,1,1325.624,937.522Zm0-6.538a3.015,3.015,0,1,0,3.015,3.015A3.018,3.018,0,0,0,1325.624,930.984Z" transform="translate(-1302.65 -926.585)" fill="#fff"/>
        <path id="Path_291" data-name="Path 291" d="M1180.542,937.522a3.524,3.524,0,1,1,3.524-3.524A3.527,3.527,0,0,1,1180.542,937.522Zm0-6.538a3.015,3.015,0,1,0,3.015,3.015A3.018,3.018,0,0,0,1180.542,930.984Z" transform="translate(-1168.442 -926.585)" fill="#fff"/>
        <g id="Group_293" data-name="Group 293" transform="translate(15.37 37.203)">
          <rect id="Rectangle_108" data-name="Rectangle 108" width="89.836" height="10.413" rx="4.5" transform="translate(5.496 58.796)" fill="#fff"/>
          <path id="Rectangle_109" data-name="Rectangle 109" d="M2.252,0H97.42a2.252,2.252,0,0,1,2.252,2.252v0A2.252,2.252,0,0,1,97.42,4.5H2.252A2.252,2.252,0,0,1,0,2.253v0A2.252,2.252,0,0,1,2.252,0Z" transform="translate(0 66.261)" fill="#fff"/>
          <path id="Path_292" data-name="Path 292" d="M1440.054,1394.086h-85.107a1.159,1.159,0,0,1-.425-2.237l42.554-16.755a1.156,1.156,0,0,1,.849,0l42.554,16.755A1.159,1.159,0,0,1,1440.054,1394.086Z" transform="translate(-1347.332 -1375.013)" fill="#fff"/>
          <g id="Group_292" data-name="Group 292" transform="translate(8.421 19.726)">
            <g id="Group_281" data-name="Group 281">
              <g id="Group_280" data-name="Group 280" transform="translate(2.008 1.825)">
                <rect id="Rectangle_110" data-name="Rectangle 110" width="1.825" height="33.58" fill="#fff"/>
                <rect id="Rectangle_111" data-name="Rectangle 111" width="1.825" height="33.58" transform="translate(2.737)" fill="#fff"/>
                <rect id="Rectangle_112" data-name="Rectangle 112" width="1.825" height="33.58" transform="translate(5.475)" fill="#fff"/>
              </g>
              <path id="Path_293" data-name="Path 293" d="M1391.347,1638.236h-11.315v.491l1.643.786h8.03l1.642-.786Z" transform="translate(-1380.032 -1638.236)" fill="#fff"/>
              <path id="Path_294" data-name="Path 294" d="M1392.565,2118.115H1381.25v-1.769l1.643-.786h8.03l1.642.786Z" transform="translate(-1381.159 -2079.789)" fill="#fff"/>
            </g>
            <g id="Group_283" data-name="Group 283" transform="translate(14.418)">
              <g id="Group_282" data-name="Group 282" transform="translate(2.008 1.825)">
                <rect id="Rectangle_113" data-name="Rectangle 113" width="1.825" height="33.58" fill="#fff"/>
                <rect id="Rectangle_114" data-name="Rectangle 114" width="1.825" height="33.58" transform="translate(2.738)" fill="#fff"/>
                <rect id="Rectangle_115" data-name="Rectangle 115" width="1.825" height="33.58" transform="translate(5.475)" fill="#fff"/>
              </g>
              <path id="Path_295" data-name="Path 295" d="M1583.738,1638.236h-11.315v.491l1.642.786h8.03l1.642-.786Z" transform="translate(-1572.423 -1638.236)" fill="#fff"/>
              <path id="Path_296" data-name="Path 296" d="M1584.956,2118.115h-11.315v-1.769l1.643-.786h8.03l1.642.786Z" transform="translate(-1573.549 -2079.789)" fill="#fff"/>
            </g>
            <g id="Group_285" data-name="Group 285" transform="translate(28.835)">
              <g id="Group_284" data-name="Group 284" transform="translate(2.008 1.825)">
                <rect id="Rectangle_116" data-name="Rectangle 116" width="1.825" height="33.58" fill="#fff"/>
                <rect id="Rectangle_117" data-name="Rectangle 117" width="1.825" height="33.58" transform="translate(2.737)" fill="#fff"/>
                <rect id="Rectangle_118" data-name="Rectangle 118" width="1.825" height="33.58" transform="translate(5.475)" fill="#fff"/>
              </g>
              <path id="Path_297" data-name="Path 297" d="M1776.129,1638.236h-11.315v.491l1.642.786h8.03l1.643-.786Z" transform="translate(-1764.814 -1638.236)" fill="#fff"/>
              <path id="Path_298" data-name="Path 298" d="M1777.346,2118.115h-11.315v-1.769l1.642-.786h8.03l1.642.786Z" transform="translate(-1765.94 -2079.789)" fill="#fff"/>
            </g>
            <g id="Group_287" data-name="Group 287" transform="translate(43.253)">
              <g id="Group_286" data-name="Group 286" transform="translate(2.007 1.825)">
                <rect id="Rectangle_119" data-name="Rectangle 119" width="1.825" height="33.58" fill="#fff"/>
                <rect id="Rectangle_120" data-name="Rectangle 120" width="1.825" height="33.58" transform="translate(2.738)" fill="#fff"/>
                <rect id="Rectangle_121" data-name="Rectangle 121" width="1.825" height="33.58" transform="translate(5.475)" fill="#fff"/>
              </g>
              <path id="Path_299" data-name="Path 299" d="M1968.52,1638.236H1957.2v.491l1.643.786h8.03l1.643-.786Z" transform="translate(-1957.205 -1638.236)" fill="#fff"/>
              <path id="Path_300" data-name="Path 300" d="M1969.737,2118.115h-11.315v-1.769l1.643-.786h8.03l1.642.786Z" transform="translate(-1958.331 -2079.789)" fill="#fff"/>
            </g>
            <g id="Group_289" data-name="Group 289" transform="translate(57.67)">
              <g id="Group_288" data-name="Group 288" transform="translate(2.007 1.825)">
                <rect id="Rectangle_122" data-name="Rectangle 122" width="1.825" height="33.58" fill="#fff"/>
                <rect id="Rectangle_123" data-name="Rectangle 123" width="1.825" height="33.58" transform="translate(2.738)" fill="#fff"/>
                <rect id="Rectangle_124" data-name="Rectangle 124" width="1.825" height="33.58" transform="translate(5.475)" fill="#fff"/>
              </g>
              <path id="Path_301" data-name="Path 301" d="M2160.911,1638.236H2149.6v.491l1.642.786h8.03l1.642-.786Z" transform="translate(-2149.596 -1638.236)" fill="#fff"/>
              <path id="Path_302" data-name="Path 302" d="M2162.128,2118.115h-11.315v-1.769l1.643-.786h8.03l1.642.786Z" transform="translate(-2150.722 -2079.789)" fill="#fff"/>
            </g>
            <g id="Group_291" data-name="Group 291" transform="translate(72.088)">
              <g id="Group_290" data-name="Group 290" transform="translate(2.007 1.825)">
                <rect id="Rectangle_125" data-name="Rectangle 125" width="1.825" height="33.58" fill="#fff"/>
                <rect id="Rectangle_126" data-name="Rectangle 126" width="1.825" height="33.58" transform="translate(2.738)" fill="#fff"/>
                <rect id="Rectangle_127" data-name="Rectangle 127" width="1.825" height="33.58" transform="translate(5.475)" fill="#fff"/>
              </g>
              <path id="Path_303" data-name="Path 303" d="M2353.3,1638.236h-11.315v.491l1.643.786h8.03l1.643-.786Z" transform="translate(-2341.986 -1638.236)" fill="#fff"/>
              <path id="Path_304" data-name="Path 304" d="M2354.519,2118.115H2343.2v-1.769l1.642-.786h8.03l1.642.786Z" transform="translate(-2343.113 -2079.789)" fill="#fff"/>
            </g>
          </g>
          <rect id="Rectangle_128" data-name="Rectangle 128" width="89.917" height="1.959" rx="0.98" transform="translate(5.495 58.806)" fill="#fff"/>
        </g>
        <path id="Rectangle_129" data-name="Rectangle 129" d="M2.968,0H89.8a2.968,2.968,0,0,1,2.968,2.968v0A2.968,2.968,0,0,1,89.8,5.936H2.968A2.968,2.968,0,0,1,0,2.968v0A2.968,2.968,0,0,1,2.968,0Z" transform="translate(7.75 115.948)" fill="#fff"/>
        <path id="Rectangle_130" data-name="Rectangle 130" d="M2.968,0H66.457a2.968,2.968,0,0,1,2.968,2.968v0a2.968,2.968,0,0,1-2.968,2.968H2.968A2.968,2.968,0,0,1,0,2.968v0A2.968,2.968,0,0,1,2.968,0Z" transform="translate(7.75 126.411)" fill="#fff"/>
      </g>
    </g>
    <g id="Group_297" data-name="Group 297" transform="translate(565.939 586.887)">
      <path id="Path_305" data-name="Path 305" d="M2319.717,2382.167s7.983,4.422,8.643,11.906.055,38.547-15.952,46.192-37.194,5.883-45.3,5.048-12.607-6.348-13.611-10.143-2.627-17.932,5.9-22.492,17.492-11.546,26.447-18.349S2310.143,2376.421,2319.717,2382.167Z" transform="translate(-2240.538 -2368.158)" fill="#b3b4b9"/>
      <path id="Path_306" data-name="Path 306" d="M2259.391,2843.435s2.154.114,2.418,4.546a25.6,25.6,0,0,1-11.744,5.544c-.507.08.708-3.458.891-3.938C2251.826,2847.307,2254.562,2845.839,2259.391,2843.435Z" transform="translate(-2238.017 -2796.335)" fill="#91b3fa"/>
      <path id="Path_307" data-name="Path 307" d="M2324.7,2569.033h-2.163a5.523,5.523,0,0,1-3.97-1.679c-3.582-3.7-12.532-12.394-19.607-14.792a2.392,2.392,0,0,0-2.924,1.264c-1.477,3.151-3.549,10.485,1.358,21.585a2.213,2.213,0,0,0,3.2,1.005,1.813,1.813,0,0,0,.689-.841l-.54-12.974s11.9,10.411,13.972,12.419S2327.31,2575.805,2324.7,2569.033Z" transform="translate(-2279.067 -2527.146)"/>
      <path id="Path_308" data-name="Path 308" d="M2112.6,3155.293a17.092,17.092,0,0,1,9.323-4.08l1.482.906a16.137,16.137,0,0,1-2.671,2.866,18.655,18.655,0,0,1-6.068,2.44C2112.692,3157.689,2112.4,3156.5,2112.6,3155.293Z" transform="translate(-2110.917 -3081.049)" fill="#91b3fa"/>
      <path id="Path_309" data-name="Path 309" d="M2239.607,2897.35c1.174.38,1.69,2.042,4.668.943a26.357,26.357,0,0,0,6.125-3.227c.024.214.045.438.06.677,0,0-5.268,5.01-12.016,6.076a.672.672,0,0,1-.726-.9A16.94,16.94,0,0,1,2239.607,2897.35Z" transform="translate(-2226.667 -2844.097)" fill="url(#linear-gradient-4)"/>
      <path id="Path_310" data-name="Path 310" d="M2091.042,3203.292a15.694,15.694,0,0,1,1.435-1.425c-.2,1.2.091,2.4,2.065,2.133a18.662,18.662,0,0,0,6.068-2.44,13.118,13.118,0,0,1-8.834,3.391A1,1,0,0,1,2091.042,3203.292Z" transform="translate(-2090.793 -3127.623)" fill="url(#linear-gradient-5)"/>
      <path id="Path_311" data-name="Path 311" d="M2257.174,2817.785l-21.291.23s-12.158,10.059-14.364,25.4c0,0-.366,1.128,1.832,1.321a42.2,42.2,0,0,0,12.144-13.289c5.877-10.407,17.52-5.722,17.52-5.722,3.826-2.758,9.231-3.32,13.3-4.239Z" transform="translate(-2211.702 -2772.608)"/>
      <path id="Path_312" data-name="Path 312" d="M2670.1,2469.836a61.347,61.347,0,0,0,3.166-13.969,30.144,30.144,0,0,0-3.1-2.346.861.861,0,0,1-.337-1.117c.876-1.815,6.175-8.943,6.572-9.042,2.157-.539,11.006-4.745,17.237,3.779,2.674,3.658-.531,14.919-12.664,26.582l-2.5.479Z" transform="translate(-2626.356 -2424.847)" fill="url(#linear-gradient-6)"/>
      <path id="Path_313" data-name="Path 313" d="M2802.371,2381.768l1.584,5.284a.581.581,0,0,1-.226.647,5.9,5.9,0,0,1-5.491.552.861.861,0,0,1-.554-.74l-.375-4.6Z" transform="translate(-2744.363 -2369.266)" fill="url(#linear-gradient-7)"/>
      <g id="Group_296" data-name="Group 296" transform="translate(45.271 0)">
        <path id="Path_314" data-name="Path 314" d="M2741.062,2280.075s.779,5.478,2.883,7.162,6.2.416,7.589-3.713l-2.759-7.061Z" transform="translate(-2737.603 -2271.852)" fill="url(#linear-gradient-8)"/>
        <path id="Path_315" data-name="Path 315" d="M2706.382,2224.112a.271.271,0,0,1-.353-.217,7.09,7.09,0,0,0-.649-2.188s.2-.719-1.816.367-5.047,2.68-6.831,1.731c-1.739-.926-3.5-5.586,1.1-4.723a.271.271,0,0,0,.322-.284,2.8,2.8,0,0,1,1.8-3.093,2.565,2.565,0,0,1,2.96.679.27.27,0,0,0,.422-.007,3.127,3.127,0,0,1,3.858-1.161c1.647.726,1.9,1.74,1.876,2.372a.27.27,0,0,0,.385.258,1.628,1.628,0,0,1,2.093.621c1.074,1.346-.461,2.514-.921,2.82a.273.273,0,0,0-.124.224c0,.7-.113,3.754-1.644,5.477a.274.274,0,0,1-.455-.078l-1.178-2.808a.273.273,0,0,0-.335-.154Z" transform="translate(-2694.899 -2214.931)"/>
        <path id="Path_316" data-name="Path 316" d="M2847.8,2318.26s.719-2.931,1.813-1.979-.285,3.046-1.537,3.445Z" transform="translate(-2836.341 -2308.509)" fill="url(#linear-gradient-9)"/>
      </g>
      <path id="Path_317" data-name="Path 317" d="M2714.665,2535.281a.167.167,0,0,1-.167-.167,32.4,32.4,0,0,1,1.232-7.476.167.167,0,1,1,.322.094,32.043,32.043,0,0,0-1.219,7.381.167.167,0,0,1-.167.168Z" transform="translate(-2667.758 -2504.093)" fill="url(#linear-gradient-10)"/>
      <path id="Path_318" data-name="Path 318" d="M2806.424,2560.091a.167.167,0,0,1-.132-.271,37.959,37.959,0,0,0,4.435-7.055.168.168,0,0,1,.312.123,38.292,38.292,0,0,1-4.484,7.139A.168.168,0,0,1,2806.424,2560.091Z" transform="translate(-2752.64 -2527.351)" fill="url(#linear-gradient-10)"/>
      <path id="Path_319" data-name="Path 319" d="M2862.248,2637.3l-.627-.887a.167.167,0,1,1,.273-.193l.47.665c4.617-2.053,7.473-7.574,7.5-7.63a.167.167,0,1,1,.3.152c-.029.058-2.992,5.785-7.792,7.84Z" transform="translate(-2803.827 -2598.125)" fill="url(#linear-gradient-10)"/>
      <path id="Path_320" data-name="Path 320" d="M2482.253,2573.018s-3.5,10.071-10.311,2.406l-.649-.288-4.885-3.339.544,1.934a3.613,3.613,0,0,0,2.1,2.363l.644.265c1.224,2.545,3.848,6.4,7.889,7.133,6.064,1.1,9.175-7.1,9.175-7.1Z" transform="translate(-2438.26 -2545.054)" fill="url(#linear-gradient-13)"/>
      <path id="Path_321" data-name="Path 321" d="M2428.484,2534.952l-.343.469a.5.5,0,0,0,.122.708l7.7,5.257a.5.5,0,0,0,.589-.807l-7.352-5.726A.5.5,0,0,0,2428.484,2534.952Z" transform="translate(-2402.772 -2510.781)"/>
      <path id="Path_322" data-name="Path 322" d="M2526.587,2567.812c-.1-.085,5.946-3.043,8.221-2.772,2.216.264,4.822,1.919,7.252,3.882,2.188,1.766,4.439,2.906,6.551,2.818,0,0,3.613,3.93,2.813,6.3a8.441,8.441,0,0,1-7.438-2.434c-3.257-3.216-6.853-7.314-8.876-8.061a.572.572,0,0,0-.508.057,4.6,4.6,0,0,1-4.99-.169S2527.591,2568.69,2526.587,2567.812Z" transform="translate(-2493.927 -2538.787)" fill="url(#linear-gradient-14)"/>
    </g>
  </g>
</svg>
