<svg id="bell_2_" data-name="bell (2)" xmlns="http://www.w3.org/2000/svg" width="18.573" height="22.7" viewBox="0 0 18.573 22.7">
  <path id="Path_85" data-name="Path 85" d="M12.064,23.064A2.064,2.064,0,0,0,14.127,21H10A2.064,2.064,0,0,0,12.064,23.064Z" transform="translate(-2.777 -0.363)" fill="#a4a4a4"/>
  <path id="Path_86" data-name="Path 86" d="M21.494,18.936a1.032,1.032,0,0,0-.224-1.125L19.509,16.05V10.286a7.223,7.223,0,0,0-6.191-7.14V2.032a1.032,1.032,0,1,0-2.064,0V3.146a7.223,7.223,0,0,0-6.191,7.14V16.05L3.3,17.812a1.032,1.032,0,0,0,.73,1.761H20.541A1.032,1.032,0,0,0,21.494,18.936ZM6.523,17.509l.3-.3a1.032,1.032,0,0,0,.3-.73V10.286a5.159,5.159,0,0,1,10.318,0v6.191a1.032,1.032,0,0,0,.3.729l.3.3Z" transform="translate(-3 -1)" fill="#a4a4a4"/>
</svg>
