<svg xmlns="http://www.w3.org/2000/svg" width="43" height="43" viewBox="0 0 43 43">
  <g id="Cash_payment" data-name="Cash payment" transform="translate(-2 -2)">
    <path id="Path_472" data-name="Path 472" d="M35.8,40.8,27.43,44.427a4.253,4.253,0,0,1,.07.746,4.332,4.332,0,0,1-4.35,4.3H15.5a.717.717,0,0,1,0-1.433H23.15a2.871,2.871,0,1,0,0-5.741H16.824a4.378,4.378,0,0,1-2.057-.318,17.655,17.655,0,0,0-7.034-1.809V38.717A.716.716,0,0,0,7.017,38h-4.3A.716.716,0,0,0,2,38.717V54.483a.716.716,0,0,0,.717.717h4.3a.716.716,0,0,0,.717-.717v-1.13s12.254,1.129,12.506,1.129a3.909,3.909,0,0,0,2.122-.613l15.8-8.835a2.407,2.407,0,0,0,.85-3.1A2.469,2.469,0,0,0,35.8,40.8Z" transform="translate(0 -10.2)" fill="#988149"/>
    <path id="Path_473" data-name="Path 473" d="M18.059,21A2.877,2.877,0,0,1,16,23.059v2.332a2.877,2.877,0,0,1,2.059,2.059H34.007a2.877,2.877,0,0,1,2.059-2.059V23.06a2.843,2.843,0,0,1-1.243-.7l-1.6,1.6a4.4,4.4,0,0,1-3.005,1.226,4.155,4.155,0,0,1-2.885-1.209A3.976,3.976,0,0,1,26.087,21Z" transform="translate(-3.967 -5.383)" fill="#988149"/>
    <path id="Path_474" data-name="Path 474" d="M38.667,17.636a5.171,5.171,0,0,1-2.5-.027l-2.036,2.036a1.423,1.423,0,0,0,.948.371.716.716,0,0,1,.717.717v3.583a.716.716,0,0,1-.717.717,1.435,1.435,0,0,0-1.433,1.433.716.716,0,0,1-.717.717h-17.2a.716.716,0,0,1-.717-.717,1.435,1.435,0,0,0-1.433-1.433.716.716,0,0,1-.717-.717V20.733a.716.716,0,0,1,.717-.717,1.435,1.435,0,0,0,1.433-1.433.716.716,0,0,1,.717-.717h8.94a4.731,4.731,0,0,1,1.06-1.633L26.967,15H10.717a.716.716,0,0,0-.717.717V29.333a.716.716,0,0,0,.717.717H37.95a.716.716,0,0,0,.717-.717Z" transform="translate(-2.267 -3.683)" fill="#988149"/>
    <path id="Path_475" data-name="Path 475" d="M51.816,2H48.949a.716.716,0,0,0-.717.717v.717H37.064A4.865,4.865,0,0,0,33.6,4.867L28.586,9.883h5.08L35.9,7.647A.717.717,0,0,1,36.916,8.66l-4.931,4.931a2.972,2.972,0,0,0-.881,1.7,2.586,2.586,0,0,0,.778,2.246,2.789,2.789,0,0,0,3.9.017l5.29-5.289A4.01,4.01,0,0,0,45.01,12a.716.716,0,1,1,.72,1.239c-.121.07-.242.13-.364.192v6.252a15.672,15.672,0,0,0,2.867-1.74v.544a.716.716,0,0,0,.717.717h2.867a.716.716,0,0,0,.717-.717V2.717A.716.716,0,0,0,51.816,2Z" transform="translate(-7.533)" fill="#988149"/>
  </g>
</svg>
