<svg id="close_2_" data-name="close (2)" xmlns="http://www.w3.org/2000/svg" width="21.277" height="21.277" viewBox="0 0 21.277 21.277">
  <path id="Path_3958" data-name="Path 3958" d="M17.287,21.277H3.989A3.989,3.989,0,0,1,0,17.287V3.989A3.989,3.989,0,0,1,3.989,0h13.3a3.989,3.989,0,0,1,3.989,3.989v13.3A3.989,3.989,0,0,1,17.287,21.277Zm0,0" fill="#ffe6e2"/>
  <path id="Path_3959" data-name="Path 3959" d="M180.148,179.145l4.26-4.26a.709.709,0,0,0-1-1l-4.26,4.26-4.26-4.26a.709.709,0,0,0-1,1l4.26,4.26-4.26,4.26a.708.708,0,1,0,1,1l4.261-4.26,4.26,4.26a.708.708,0,0,0,1-1Zm0,0" transform="translate(-168.507 -168.507)" fill="#fc573b"/>
</svg>
