<?xml version="1.0" encoding="iso-8859-1"?>
<!-- Generator: Adobe Illustrator 19.0.0, SVG Export Plug-In . SVG Version: 6.00 Build 0)  -->
<svg version="1.1" id="Capa_1" xmlns="http://www.w3.org/2000/svg" xmlns:xlink="http://www.w3.org/1999/xlink" x="0px" y="0px"
	 viewBox="0 0 512 512" style="enable-background:new 0 0 512 512;" xml:space="preserve">
<g>
	<g>
		<path d="M447.811,209.792L448,208c0-79.519-64.451-144-144-144c-53.443,0-99.553,29.44-124.385,72.673
			C168.801,131.328,156.867,128,144,128c-44.191,0-80,35.809-80,80l0.189,1.792C26.051,231.997,0,272.896,0,320
			c0,70.431,57.631,128,128,128h96V320h-64l96-128l96,128h-64v128h96c70.431,0,128-57.569,128-128
			C512,272.896,485.949,231.997,447.811,209.792z"/>
	</g>
</g>
<g>
</g>
<g>
</g>
<g>
</g>
<g>
</g>
<g>
</g>
<g>
</g>
<g>
</g>
<g>
</g>
<g>
</g>
<g>
</g>
<g>
</g>
<g>
</g>
<g>
</g>
<g>
</g>
<g>
</g>
</svg>
