<svg xmlns="http://www.w3.org/2000/svg" width="43.065" height="46" viewBox="0 0 43.065 46">
  <g id="Contract" transform="translate(-11 -5)">
    <path id="Path_476" data-name="Path 476" d="M26.7,40.9l1.167-4.072a2.035,2.035,0,0,1,.792-1.116C46.94,17.437,45.926,18.317,46.778,17.863V7.556A2.563,2.563,0,0,0,44.222,5H13.556A2.563,2.563,0,0,0,11,7.556V48.444A2.563,2.563,0,0,0,13.556,51H44.222a2.563,2.563,0,0,0,2.556-2.556V36.1l-.3.3a2.62,2.62,0,0,1-3.612,0,2.537,2.537,0,0,1-.5-.716L35.5,42.55a2.048,2.048,0,0,1-1.159.8l-4.029,1.159-.451.46a2.56,2.56,0,1,1-3.629-3.612ZM16.724,11.815H38.873a.852.852,0,1,1,0,1.7H16.724a.852.852,0,1,1,0-1.7Zm0,4.259H38.873a.852.852,0,1,1,0,1.7H16.724a.852.852,0,1,1,0-1.7Zm0,4.259H38.873a.852.852,0,1,1,0,1.7H16.724a.852.852,0,1,1,0-1.7Zm0,5.963a.852.852,0,1,1,0-1.7h9.37a.852.852,0,1,1,0,1.7Z" fill="#988149"/>
    <path id="Path_477" data-name="Path 477" d="M32.182,43.47l4.072,4.072-4.021,1.15-.767.775a.855.855,0,1,1-1.21-1.21l.775-.767Z" transform="translate(-2.816 -5.699)" fill="#988149"/>
    <path id="Path_478" data-name="Path 478" d="M50.729,31.56l-.579.579L38.19,44.1l-4.43-4.43L46.3,27.13Z" transform="translate(-3.372 -3.279)" fill="#988149"/>
    <path id="Path_479" data-name="Path 479" d="M59.523,29.088l-8.536,8.536a.852.852,0,1,1-1.2-1.21l6.747-6.747-1.218-1.21-1.048,1.048-4.43-4.43,2.786-2.786a3.132,3.132,0,0,1,4.43,4.43l-.528.528,1.21,1.218.579-.588a.855.855,0,1,1,1.21,1.21Z" transform="translate(-5.709 -2.426)" fill="#988149"/>
  </g>
</svg>
