<svg xmlns="http://www.w3.org/2000/svg" width="38.903" height="60.359" viewBox="0 0 38.903 60.359">
  <g id="coupon_3_" data-name="coupon (3)" transform="translate(38.903) rotate(90)">
    <g id="Group_2693" data-name="Group 2693" transform="translate(46.212 24.757)">
      <g id="Group_2692" data-name="Group 2692" transform="translate(0 0)">
        <path id="Path_482" data-name="Path 482" d="M393.768,301a1.768,1.768,0,1,0,1.768,1.768A1.77,1.77,0,0,0,393.768,301Z" transform="translate(-392 -301)" fill="#988149"/>
      </g>
    </g>
    <g id="Group_2695" data-name="Group 2695" transform="translate(0 0)">
      <g id="Group_2694" data-name="Group 2694">
        <path id="Path_483" data-name="Path 483" d="M58.591,91H17.83v5.3a1.768,1.768,0,1,1-3.537,0V91H1.768A1.767,1.767,0,0,0,0,92.768v10.61a1.767,1.767,0,0,0,1.768,1.768,5.305,5.305,0,1,1,0,10.61A1.767,1.767,0,0,0,0,117.525v10.61A1.767,1.767,0,0,0,1.768,129.9H14.147v-5.3a1.768,1.768,0,1,1,3.537,0v5.3H58.591a1.767,1.767,0,0,0,1.768-1.768V92.768A1.767,1.767,0,0,0,58.591,91ZM17.683,117.525a1.768,1.768,0,0,1-3.537,0v-3.537a1.768,1.768,0,0,1,3.537,0Zm0-10.61a1.768,1.768,0,1,1-3.537,0v-3.537a1.768,1.768,0,0,1,3.537,0Zm10.846-3.537a5.305,5.305,0,1,1,5.305,5.305A5.311,5.311,0,0,1,28.529,103.378Zm4.324,19.155a1.767,1.767,0,0,1-.49-2.452L46.51,98.861a1.768,1.768,0,1,1,2.943,1.962l-14.147,21.22A1.769,1.769,0,0,1,32.853,122.533Zm15.128.3a5.305,5.305,0,1,1,5.305-5.3A5.311,5.311,0,0,1,47.981,122.83Z" transform="translate(0 -91)" fill="#988149"/>
      </g>
    </g>
    <g id="Group_2697" data-name="Group 2697" transform="translate(32.066 10.61)">
      <g id="Group_2696" data-name="Group 2696">
        <path id="Path_484" data-name="Path 484" d="M273.768,181a1.768,1.768,0,1,0,1.768,1.768A1.77,1.77,0,0,0,273.768,181Z" transform="translate(-272 -181)" fill="#988149"/>
      </g>
    </g>
  </g>
</svg>
