<svg xmlns="http://www.w3.org/2000/svg" width="42.436" height="55.71" viewBox="0 0 42.436 55.71">
  <g id="insurance" transform="translate(-61)">
    <path id="Path_415" data-name="Path 415" d="M351,8.787v9.925h9.925Z" transform="translate(-258.445 -7.831)" fill="#988149"/>
    <path id="Path_416" data-name="Path 416" d="M183.608,192h-6.719A8.611,8.611,0,0,1,171,196.2v7.834a13.548,13.548,0,0,0,9.249,12.911,13.548,13.548,0,0,0,9.249-12.911V196.2A8.612,8.612,0,0,1,183.608,192Zm2.411,10.59-6.155,6.155a1.632,1.632,0,0,1-2.308,0l-3.078-3.078a1.632,1.632,0,0,1,2.308-2.308l1.924,1.923,5-5a1.632,1.632,0,1,1,2.308,2.308Z" transform="translate(-98.031 -171.109)" fill="#988149"/>
    <path id="Path_417" data-name="Path 417" d="M90.923,14.145a1.632,1.632,0,0,1-1.632-1.632V0H66.985A5.991,5.991,0,0,0,61,5.985V49.726a5.991,5.991,0,0,0,5.985,5.984H97.451a5.991,5.991,0,0,0,5.985-5.984V14.145Zm3.808,18.78A16.9,16.9,0,0,1,82.687,49.113a1.631,1.631,0,0,1-.938,0A16.9,16.9,0,0,1,69.7,32.925V23.612a1.632,1.632,0,0,1,1.632-1.632,5.381,5.381,0,0,0,4.839-2.991l.23-.459a1.632,1.632,0,0,1,1.46-.9h8.7a1.632,1.632,0,0,1,1.46.9l.23.46A5.381,5.381,0,0,0,93.1,21.979a1.632,1.632,0,0,1,1.632,1.632Z" fill="#988149"/>
  </g>
</svg>
