<svg xmlns="http://www.w3.org/2000/svg" width="198.905" height="219.456" viewBox="0 0 198.905 219.456">
  <g id="megaphone_1_" data-name="megaphone (1)" transform="translate(-23.973 0)">
    <path id="Path_336" data-name="Path 336" d="M250.479,353.124l-9.364,9.364a6.621,6.621,0,0,1-9.364-9.364l9.364-9.364a6.626,6.626,0,0,0,0-9.364l-8.61-8.61a6.621,6.621,0,0,1,9.364-9.364l8.61,8.61A19.885,19.885,0,0,1,250.479,353.124Z" transform="translate(-117.61 -179.686)" fill="#7c808b"/>
    <path id="Path_337" data-name="Path 337" d="M223.422,415.569h0a13.243,13.243,0,0,1-18.728,0l-46.822-46.822L176.6,350.018l46.822,46.822A13.243,13.243,0,0,1,223.422,415.569Z" transform="translate(-76.506 -199.991)" fill="#7c808b"/>
    <path id="Path_338" data-name="Path 338" d="M80.991,261.753l29.03,29.03-.562,18.167L76.683,341.725a20.065,20.065,0,0,1-28.28-.188L29.674,322.809a19.7,19.7,0,0,1,.188-27.906l32.775-32.775Z" transform="translate(0 -149.559)" fill="#f9b9b9"/>
    <path id="Path_339" data-name="Path 339" d="M115.744,295.4l14.608,14.608-.562,18.167L97.016,360.951a20.065,20.065,0,0,1-28.28-.188l-9.177-9.177Z" transform="translate(-20.332 -168.784)" fill="#f9b9b9"/>
    <g id="Group_2520" data-name="Group 2520" transform="translate(156.66 0)">
      <path id="Path_340" data-name="Path 340" d="M340.163,26.488a6.619,6.619,0,0,1-6.621-6.621l0-13.246a6.621,6.621,0,1,1,13.241,0l0,13.246A6.619,6.619,0,0,1,340.163,26.488Z" transform="translate(-333.538 0)" fill="#988149"/>
      <path id="Path_341" data-name="Path 341" d="M446.1,136.833l-13.246,0a6.621,6.621,0,0,1,0-13.241l13.246,0a6.621,6.621,0,1,1,0,13.241Z" transform="translate(-386.5 -70.615)" fill="#988149"/>
      <path id="Path_342" data-name="Path 342" d="M418.983,30.608a6.557,6.557,0,0,1,0,9.364L404.936,54.019a6.621,6.621,0,0,1-9.364-9.364l14.046-14.046A6.557,6.557,0,0,1,418.983,30.608Z" transform="translate(-367.859 -16.365)" fill="#988149"/>
    </g>
    <path id="Path_343" data-name="Path 343" d="M179.727,55.765l65.551,65.551c1.873,1.873,4.214,21.631,6.648,22.006l-18.447,3.84c-27.344,5.431-53.283,20.508-70.888,38.113L161,186.866l-46.823-46.822,1.592-1.592A139.157,139.157,0,0,0,153.6,67.283l3.839-19.2Z" transform="translate(-51.54 -27.475)" fill="#cae8f9"/>
    <path id="Path_344" data-name="Path 344" d="M119.36,336.473a6.557,6.557,0,0,1,0,9.364L110,355.2a6.621,6.621,0,0,1-9.364-9.364L110,336.473A6.557,6.557,0,0,1,119.36,336.473Z" transform="translate(-42.677 -191.128)" fill="#e1e4fb"/>
    <path id="Path_345" data-name="Path 345" d="M243.711,142.467l32.775,32.775c1.873,1.873,4.214,21.631,6.648,22.006l-18.447,3.84C237.343,206.519,211.4,221.6,193.8,239.2l-1.592,1.592L168.8,217.382Z" transform="translate(-82.748 -81.402)" fill="#b7e0f6"/>
    <path id="Path_346" data-name="Path 346" d="M121.981,339.094a6.557,6.557,0,0,1,0,9.364l-9.364,9.365a6.557,6.557,0,0,1-9.364,0Z" transform="translate(-45.299 -193.75)" fill="#c5c9f7"/>
    <path id="Path_347" data-name="Path 347" d="M237.248,17.158l84.279,84.279a13.282,13.282,0,0,1,0,18.729,7.729,7.729,0,0,1-2.061,1.311,12.373,12.373,0,0,1-10.02,1.967,11.8,11.8,0,0,1-6.648-3.277l-84.279-84.28a12.987,12.987,0,0,1-3.559-7.679,13.1,13.1,0,0,1,1.592-8.147,15.782,15.782,0,0,1,1.967-2.9A13.283,13.283,0,0,1,237.248,17.158Z" transform="translate(-109.06 -7.596)" fill="#f9b9b9"/>
    <path id="Path_348" data-name="Path 348" d="M340.455,120.62l42.139,42.139a13.282,13.282,0,0,1,0,18.729,7.729,7.729,0,0,1-2.061,1.311,12.373,12.373,0,0,1-10.02,1.967,11.8,11.8,0,0,1-6.648-3.277l-42.139-42.139Z" transform="translate(-170.128 -68.919)" fill="#f9b9b9"/>
  </g>
</svg>
