<svg xmlns="http://www.w3.org/2000/svg" width="172.285" height="232.666" viewBox="0 0 172.285 232.666">
  <g id="discount_1_" data-name="discount (1)" transform="translate(-66.178)">
    <path id="Path_323" data-name="Path 323" d="M205.361,26.276c-1.506,2.365-3.392,5.552-5.427,9.514a2.759,2.759,0,0,1-4.834.145C182.694,14.914,167.84,0,151.875,0c-25.437,0-48.053,37.848-62.439,77.956a6.1,6.1,0,0,1-11.522-.086q-.041-.125-.081-.252a2.551,2.551,0,0,0-4.884.148C67,99.845,56.792,154.111,85.182,195.731a78.656,78.656,0,0,0,123.633,12.53c6.474-7.8,29.648-29.7,29.648-77.3,0-61.461-27.333-78.089-29.579-103.839a1.913,1.913,0,0,0-3.523-.844Z" fill="#f8d5cf"/>
    <g id="Group_2512" data-name="Group 2512" transform="translate(76.317 75.255)">
      <g id="Group_2510" data-name="Group 2510" transform="translate(0)">
        <g id="Group_2509" data-name="Group 2509">
          <circle id="Ellipse_17" data-name="Ellipse 17" cx="76.003" cy="76.003" r="76.003" fill="#988149"/>
        </g>
      </g>
      <g id="Group_2511" data-name="Group 2511" transform="translate(31.295 27.821)">
        <path id="Path_325" data-name="Path 325" d="M157,263.4V246.674c0-11.663,7.657-15.9,17.671-15.9,9.9,0,17.671,4.241,17.671,15.9V263.4c0,11.663-7.775,15.9-17.671,15.9C164.659,279.306,157,275.065,157,263.4Zm23.561-16.729c0-3.887-2.238-5.655-5.89-5.655s-5.773,1.767-5.773,5.655V263.4c0,3.887,2.121,5.655,5.773,5.655s5.89-1.767,5.89-5.655Zm48.3-14.49a5.111,5.111,0,0,1-.471,2.239l-41.468,84.938a5.9,5.9,0,0,1-5.3,2.945,6.517,6.517,0,0,1-6.6-6.244,5.282,5.282,0,0,1,.589-2.238l41.35-84.938a5.192,5.192,0,0,1,4.948-2.945c3.3,0,6.95,2.473,6.95,6.243Zm-17.789,69.152V284.608c0-11.663,7.657-15.9,17.671-15.9,9.9,0,17.671,4.241,17.671,15.9v16.728c0,11.663-7.776,15.9-17.671,15.9-10.013,0-17.671-4.241-17.671-15.9Zm23.562-16.728c0-3.887-2.238-5.655-5.891-5.655s-5.772,1.767-5.772,5.655v16.728c0,3.888,2.12,5.655,5.772,5.655s5.891-1.767,5.891-5.655Z" transform="translate(-157.002 -225.941)" fill="#fff"/>
      </g>
    </g>
  </g>
</svg>
