<svg xmlns="http://www.w3.org/2000/svg" width="195" height="195" viewBox="0 0 195 195">
  <g id="Group_2935" data-name="Group 2935" transform="translate(-885 -239)">
    <circle id="Ellipse_19" data-name="Ellipse 19" cx="97.5" cy="97.5" r="97.5" transform="translate(885 239)" fill="#f4f6f9"/>
    <g id="handshake" transform="translate(913 194.151)">
      <path id="Path_418" data-name="Path 418" d="M151.642,175.983l-.566-1.208-.239-2.723-48.069-30.981-2.7-1.766-.737-.276a27.686,27.686,0,0,0-8.163-1.717l-7.629-.429a24.964,24.964,0,0,0-3,0A11.733,11.733,0,0,1,75.263,136l-5.523-2.311-1.534,1.09L55.484,166.357l.708,1.664L66.9,174.775l3.389,2.382,2.145.048,33.435,23.606.317,2.17,4.6,3.394a6.354,6.354,0,0,0,8.347-.626,6.253,6.253,0,0,0,.555-7.966l2.306,1.7a6.351,6.351,0,0,0,8.517-.809,6.251,6.251,0,0,0,.086-8.167l1.3.956a6.353,6.353,0,0,0,8.239-.518,6.251,6.251,0,0,0,.391-8.424l1.945,1.436a6.22,6.22,0,0,0,9.172-7.976Z" transform="translate(-40.519 -23.979)" fill="#f1afa2"/>
      <path id="Path_419" data-name="Path 419" d="M57.78,233.683l-2.3,5.7.708,1.664L66.9,247.8l3.389,2.382,2.145.048,33.435,23.606.317,2.17,4.6,3.394a6.354,6.354,0,0,0,8.347-.626,6.284,6.284,0,0,0,.507-.611Z" transform="translate(-40.519 -97.006)" fill="#e99c8c"/>
      <path id="Path_420" data-name="Path 420" d="M.152,138.342,14.4,102.225A2.171,2.171,0,0,1,17.217,101l11.338,4.473a2.171,2.171,0,0,1,1.223,2.816L15.529,144.409a2.171,2.171,0,0,1-2.816,1.223L1.375,141.158a2.171,2.171,0,0,1-1.223-2.816Z" transform="translate(0 0)" fill="#dbedff"/>
      <path id="Path_421" data-name="Path 421" d="M7.577,141.781l14.535-36.843a2.211,2.211,0,0,1,1.638-1.359L17.217,101a2.171,2.171,0,0,0-2.816,1.223L.152,138.342a2.171,2.171,0,0,0,1.223,2.816l6.316,2.491a2.208,2.208,0,0,1-.114-1.869Z" transform="translate(0 0)" fill="#b5dcff"/>
      <g id="Group_2690" data-name="Group 2690" transform="translate(27.685 146.101)">
        <path id="Path_422" data-name="Path 422" d="M104.592,284.383a5.509,5.509,0,0,1-.639-7.765l5.151-6.046a5.509,5.509,0,1,1,8.4,7.125l-5.151,6.046A5.509,5.509,0,0,1,104.592,284.383Z" transform="translate(-102.646 -268.626)" fill="#ffdecf"/>
        <path id="Path_423" data-name="Path 423" d="M135.75,310.8a5.509,5.509,0,0,1-.639-7.765l5.151-6.046a5.509,5.509,0,1,1,8.4,7.125l-5.151,6.046A5.509,5.509,0,0,1,135.75,310.8Z" transform="translate(-125.4 -287.918)" fill="#ffdecf"/>
        <path id="Path_424" data-name="Path 424" d="M166.908,337.22a5.509,5.509,0,0,1-.639-7.765l5.151-6.046a5.509,5.509,0,0,1,8.4,7.125l-5.151,6.046A5.509,5.509,0,0,1,166.908,337.22Z" transform="translate(-148.154 -307.212)" fill="#ffdecf"/>
        <path id="Path_425" data-name="Path 425" d="M198.065,363.639a5.509,5.509,0,0,1-.639-7.765l5.151-6.046a5.509,5.509,0,0,1,8.4,7.125L205.83,363A5.509,5.509,0,0,1,198.065,363.639Z" transform="translate(-170.908 -326.505)" fill="#ffdecf"/>
      </g>
      <path id="Path_426" data-name="Path 426" d="M109.649,277.5l5.151-6.046a5.478,5.478,0,0,1,2.074-1.514l-.005,0a5.509,5.509,0,0,0-7.765.639l-5.151,6.046a5.506,5.506,0,0,0,6.33,8.64,5.509,5.509,0,0,1-.634-7.76Z" transform="translate(-74.961 -122.524)" fill="#ffcebe"/>
      <path id="Path_427" data-name="Path 427" d="M140.807,303.917l5.151-6.046a5.478,5.478,0,0,1,2.074-1.514l-.005,0a5.509,5.509,0,0,0-7.765.639l-5.151,6.046a5.506,5.506,0,0,0,6.33,8.64A5.509,5.509,0,0,1,140.807,303.917Z" transform="translate(-97.715 -141.818)" fill="#ffcebe"/>
      <path id="Path_428" data-name="Path 428" d="M171.965,330.335l5.151-6.046a5.477,5.477,0,0,1,2.074-1.514l-.005,0a5.509,5.509,0,0,0-7.765.639l-5.151,6.047a5.506,5.506,0,0,0,6.33,8.64A5.509,5.509,0,0,1,171.965,330.335Z" transform="translate(-120.469 -161.111)" fill="#ffcebe"/>
      <path id="Path_429" data-name="Path 429" d="M203.123,356.754l5.151-6.046a5.477,5.477,0,0,1,2.074-1.514l-.005,0a5.509,5.509,0,0,0-7.765.639l-5.151,6.046a5.506,5.506,0,0,0,6.33,8.64A5.509,5.509,0,0,1,203.123,356.754Z" transform="translate(-143.223 -180.404)" fill="#ffcebe"/>
      <path id="Path_430" data-name="Path 430" d="M224.329,134.563l-2.009-1.089-8.045,2.97a13.891,13.891,0,0,1-6.985.688l-23.717-3.759a8.412,8.412,0,0,0-7.3,2.389,121.98,121.98,0,0,1-19.437,16.184,3.322,3.322,0,0,0-.52,5.2c3.243,3.082,9.924,5.737,21.459-4.623a2.646,2.646,0,0,1,3.679.117,26.622,26.622,0,0,0,23.966,8.148l18.546,13.687,11.591-7.445.569-1.251Z" transform="translate(-113.409 -23.675)" fill="#ffdecf"/>
      <path id="Path_431" data-name="Path 431" d="M160,157.736a121.994,121.994,0,0,0,19.437-16.184,8.412,8.412,0,0,1,7.3-2.389l23.717,3.759a13.892,13.892,0,0,0,6.985-.688l8.045-2.97.783.425-1.938-5.127-2.009-1.089-8.045,2.97a13.891,13.891,0,0,1-6.985.688l-23.717-3.759a8.412,8.412,0,0,0-7.3,2.389,121.98,121.98,0,0,1-19.437,16.184,3.322,3.322,0,0,0-.52,5.2,10.231,10.231,0,0,0,2.563,1.793,3.327,3.327,0,0,1,1.12-1.2Z" transform="translate(-113.408 -23.675)" fill="#ffcebe"/>
      <path id="Path_432" data-name="Path 432" d="M430.809,138.342,416.56,102.225A2.171,2.171,0,0,0,413.744,101l-11.338,4.473a2.171,2.171,0,0,0-1.223,2.816l14.249,36.118a2.171,2.171,0,0,0,2.816,1.223l11.338-4.473A2.171,2.171,0,0,0,430.809,138.342Z" transform="translate(-292.868 0)" fill="#b16e3d"/>
      <path id="Path_433" data-name="Path 433" d="M423.72,148.12,408.8,110.3a2.263,2.263,0,0,1-.005-1.647l-6.387,2.52a2.171,2.171,0,0,0-1.223,2.816l14.249,36.118a2.171,2.171,0,0,0,2.816,1.223l6.038-2.382a2.261,2.261,0,0,1-.567-.828Z" transform="translate(-292.868 -5.7)" fill="#985e33"/>
      <g id="Group_2691" data-name="Group 2691" transform="translate(72.665 147.29)">
        <path id="Path_434" data-name="Path 434" d="M286.492,347.646,273.9,337.9a2.779,2.779,0,1,0-3.4,4.395l5.439,4.209,2.295,1.694A6.36,6.36,0,0,0,286.492,347.646Z" transform="translate(-269.416 -319.978)" fill="#e99c8c"/>
        <path id="Path_435" data-name="Path 435" d="M303.414,306.093a2.779,2.779,0,0,0,.507,3.9l7.419,5.712,1.193.881a6.353,6.353,0,0,0,8.239-.518c.022-.022.04-.045.061-.067l-13.522-10.41A2.779,2.779,0,0,0,303.414,306.093Z" transform="translate(-293.822 -296.385)" fill="#e99c8c"/>
        <path id="Path_436" data-name="Path 436" d="M341.059,273.609a2.779,2.779,0,0,0-3.392,4.4l8.227,6.339,1.859,1.372a6.248,6.248,0,0,0,8.174-.657Z" transform="translate(-318.468 -273.032)" fill="#e99c8c"/>
      </g>
    </g>
  </g>
</svg>
