<svg xmlns="http://www.w3.org/2000/svg" xmlns:xlink="http://www.w3.org/1999/xlink" width="195" height="195" viewBox="0 0 195 195">
  <defs>
    <radialGradient id="radial-gradient" cx="0.5" cy="0.499" r="1.137" gradientTransform="matrix(1.301, 0, 0, -0.995, 4.015, 29.495)" gradientUnits="objectBoundingBox">
      <stop offset="0" stop-color="#eadd7f"/>
      <stop offset="0.997" stop-color="#896e4b"/>
      <stop offset="1" stop-color="#896e4b"/>
    </radialGradient>
    <radialGradient id="radial-gradient-2" cx="0.288" cy="0.698" r="1.171" gradientTransform="matrix(0.452, 0, 0, -0.995, -2.168, 30.427)" xlink:href="#radial-gradient"/>
    <radialGradient id="radial-gradient-3" cx="0.601" cy="0.757" r="0.979" gradientTransform="matrix(-0.181, -0.99, -1.295, 0.14, 2.753, -0.466)" xlink:href="#radial-gradient"/>
    <radialGradient id="radial-gradient-4" cx="0.452" cy="0.855" r="1.23" gradientTransform="matrix(0.556, 0, 0, -0.995, -1.969, 24.313)" xlink:href="#radial-gradient"/>
  </defs>
  <g id="Group_2938" data-name="Group 2938" transform="translate(-430 -771)">
    <circle id="Ellipse_19" data-name="Ellipse 19" cx="97.5" cy="97.5" r="97.5" transform="translate(430 771)" fill="#f4f6f9"/>
    <g id="Group_2535" data-name="Group 2535">
      <g id="Logo" transform="translate(463 807)">
        <path id="Path_55" data-name="Path 55" d="M34.015,45.235,86.742,22.126V88.652L34.015,110.513Z" transform="translate(20.7 13.466)" fill="#eea7a7"/>
        <path id="Path_56" data-name="Path 56" d="M1.042,21.759,54.083,45.5l0,65.229L1.042,88.911Z" transform="translate(0.633 13.243)" fill="#f8b8b7"/>
        <path id="Path_57" data-name="Path 57" d="M1.118,28.644,54.045,52.3l52.668-23.059L54.439,10.526Z" transform="translate(0.679 6.406)" fill="#f8d5cf"/>
        <path id="Path_65" data-name="Path 65" d="M42.663,6.95S33.7,13.925,33.7,33.249c0,0,22.175.343,22.521-17.151,0,0-.359-12.153-6.928-12.153C47.554,3.943,45.381,4.8,42.663,6.95ZM35.424,31.277c0-11.009,5.106-14.984,5.106-14.984,7.4-5.865,7.725,5.21,7.725,5.21-.187,9.592-11.9,9.774-12.779,9.774Z" transform="translate(20.509 2.401)" fill="url(#radial-gradient)"/>
        <path id="Path_66" data-name="Path 66" d="M9.719,24.416s-5.781-1.338-7.374.41c0,0,12.084,16.722,59.738,6.933,0,0-47.975,5.128-62.081-25.014C0,6.747,1.569,18.2,9.719,24.416Z" transform="translate(-0.001 4.105)" fill="url(#radial-gradient-2)"/>
        <path id="Path_67" data-name="Path 67" d="M16.713,15.343c.434,22.083,28.427,21.65,28.427,21.65,0-24.393-11.312-33.2-11.312-33.2C30.4,1.075,27.653,0,25.457,0,17.165,0,16.713,15.343,16.713,15.343Zm10.055,6.821s.41-13.98,9.75-6.579c0,0,6.447,5.019,6.447,18.917H42.9C41.786,34.5,27,34.275,26.768,22.164Z" transform="translate(10.17)" fill="url(#radial-gradient-3)"/>
        <path id="Path_68" data-name="Path 68" d="M25.835,36.3c54.354,4.736,65.627-15.451,65.627-15.451-2-1.742-8.267.5-8.267.5C91.462,13.371,91.709.412,91.709.412,79.938,35.8,25.835,36.3,25.835,36.3Z" transform="translate(15.722 0.251)" fill="url(#radial-gradient-4)"/>
      </g>
      <g id="Group_2534" data-name="Group 2534" transform="translate(-445.453 -87)">
        <path id="Path_357" data-name="Path 357" d="M66.793,36.941V50.553a3.4,3.4,0,0,1-3.4,3.4H4.4a3.4,3.4,0,0,1-3.4-3.4V36.941a3.4,3.4,0,0,1,3.4-3.4h24.41a1.134,1.134,0,0,0,.886-.427l2.722-3.4a1.885,1.885,0,0,1,2.949,0l2.722,3.4a1.134,1.134,0,0,0,.886.427H63.39A3.4,3.4,0,0,1,66.793,36.941Z" transform="translate(982 948)" fill="#988149"/>
        <path id="Path_367" data-name="Path 367" d="M14.209,41.537h-1.8l1.467-1.467a1.134,1.134,0,1,0-1.6-1.6l-1.467,1.467v-1.8a1.134,1.134,0,0,0-2.269,0v1.8L7.071,38.467a1.134,1.134,0,1,0-1.6,1.6l1.467,1.467h-1.8a1.134,1.134,0,1,0,0,2.269h1.8L5.467,45.273a1.134,1.134,0,1,0,1.6,1.6L8.537,45.41v1.8a1.134,1.134,0,1,0,2.269,0v-1.8l1.467,1.467a1.134,1.134,0,1,0,1.6-1.6L12.41,43.806h1.8a1.134,1.134,0,0,0,0-2.269Z" transform="translate(982.403 949.075)" fill="#fff"/>
        <path id="Path_368" data-name="Path 368" d="M28.209,41.537h-1.8l1.467-1.467a1.134,1.134,0,1,0-1.6-1.6l-1.467,1.467v-1.8a1.134,1.134,0,0,0-2.269,0v1.8l-1.467-1.467a1.134,1.134,0,1,0-1.6,1.6l1.467,1.467h-1.8a1.134,1.134,0,1,0,0,2.269h1.8l-1.467,1.467a1.134,1.134,0,1,0,1.6,1.6l1.467-1.467v1.8a1.134,1.134,0,1,0,2.269,0v-1.8l1.467,1.467a1.134,1.134,0,1,0,1.6-1.6L26.41,43.806h1.8a1.134,1.134,0,1,0,0-2.269Z" transform="translate(984.284 949.075)" fill="#fff"/>
        <path id="Path_369" data-name="Path 369" d="M42.209,41.537h-1.8l1.467-1.467a1.134,1.134,0,1,0-1.6-1.6l-1.467,1.467v-1.8a1.134,1.134,0,0,0-2.269,0v1.8l-1.467-1.467a1.134,1.134,0,1,0-1.6,1.6l1.467,1.467h-1.8a1.134,1.134,0,1,0,0,2.269h1.8l-1.467,1.467a1.134,1.134,0,1,0,1.6,1.6l1.467-1.467v1.8a1.134,1.134,0,1,0,2.269,0v-1.8l1.467,1.467a1.134,1.134,0,1,0,1.6-1.6L40.41,43.806h1.8a1.134,1.134,0,1,0,0-2.269Z" transform="translate(986.165 949.075)" fill="#fff"/>
        <path id="Path_370" data-name="Path 370" d="M56.209,41.537h-1.8l1.467-1.467a1.134,1.134,0,1,0-1.6-1.6l-1.467,1.467v-1.8a1.134,1.134,0,0,0-2.269,0v1.8l-1.467-1.467a1.134,1.134,0,1,0-1.6,1.6l1.467,1.467h-1.8a1.134,1.134,0,1,0,0,2.269h1.8l-1.467,1.467a1.134,1.134,0,1,0,1.6,1.6l1.467-1.467v1.8a1.134,1.134,0,1,0,2.269,0v-1.8l1.467,1.467a1.134,1.134,0,1,0,1.6-1.6L54.41,43.806h1.8a1.134,1.134,0,1,0,0-2.269Z" transform="translate(988.046 949.075)" fill="#fff"/>
      </g>
    </g>
  </g>
</svg>
