<svg xmlns="http://www.w3.org/2000/svg" width="42.999" height="44.323" viewBox="0 0 42.999 44.323">
  <g id="percentage" transform="translate(-7.653)">
    <path id="Path_485" data-name="Path 485" d="M154.567,27.192a13.6,13.6,0,1,0-13.488-13.6A13.558,13.558,0,0,0,154.567,27.192Zm3.754-8.058a1.668,1.668,0,1,1,1.668-1.668A1.7,1.7,0,0,1,158.322,19.134Zm-.4-13.584a1.3,1.3,0,0,1,.694,1.7L152.927,20.8a1.3,1.3,0,1,1-2.393-1l5.687-13.55A1.3,1.3,0,0,1,157.919,5.55Zm-7.278,5.988A1.668,1.668,0,1,1,152.31,9.87,1.7,1.7,0,0,1,150.641,11.538Z" transform="translate(-121.882 0)" fill="#988149"/>
    <path id="Path_486" data-name="Path 486" d="M11.91,364.694H8.951a1.3,1.3,0,0,0-1.3,1.3v10.174a1.3,1.3,0,0,0,1.3,1.3H11.91Z" transform="translate(0 -333.141)" fill="#988149"/>
    <path id="Path_487" data-name="Path 487" d="M122.62,320.191a6.245,6.245,0,0,0-8.823,0l-3.888,3.888-1.593,1.593a3.434,3.434,0,0,1-2.428,1.006H98.141a1.324,1.324,0,0,1-1.335-1.237,1.3,1.3,0,0,1,1.3-1.362h7.875a3.269,3.269,0,0,0,3.229-2.687,6.4,6.4,0,0,0,.1-1.1,1.3,1.3,0,0,0-1.3-1.3h-4.315a10.2,10.2,0,0,1-4.2-1.317,13.425,13.425,0,0,0-4.877-1.566,13.739,13.739,0,0,0-4.738.517,4.2,4.2,0,0,0-3,3.665h-.017v12.761h0v.006h22.357a5.718,5.718,0,0,0,4.07-1.686l9.338-9.338A1.3,1.3,0,0,0,122.62,320.191Z" transform="translate(-72.349 -288.729)" fill="#988149"/>
  </g>
</svg>
