<svg xmlns="http://www.w3.org/2000/svg" width="195" height="195" viewBox="0 0 195 195">
  <g id="Group_2923" data-name="Group 2923" transform="translate(-885 -239)">
    <g id="Group_2679" data-name="Group 2679" transform="translate(108)">
      <circle id="Ellipse_19" data-name="Ellipse 19" cx="97.5" cy="97.5" r="97.5" transform="translate(777 239)" fill="#f4f6f9"/>
    </g>
    <g id="cash-machine" transform="translate(933 287)">
      <g id="Group_2868" data-name="Group 2868" transform="translate(56.874 12.41)">
        <path id="Path_4122" data-name="Path 4122" d="M293.478,64.036h6.9V80.914h-6.9Z" transform="translate(-293.478 -64.036)" fill="#eceaec"/>
      </g>
      <g id="Group_2871" data-name="Group 2871" transform="translate(11.93 26.673)">
        <g id="Group_2870" data-name="Group 2870">
          <g id="Group_2869" data-name="Group 2869">
            <path id="Path_4123" data-name="Path 4123" d="M124.875,161.9l-33.455,5.343L63.235,161.9,61.56,141.63c0-2.205,2.314-3.993,4.519-3.993h4.1l7.744,11.442,7.744-11.442h35.212a3.993,3.993,0,0,1,3.993,3.993Z" transform="translate(-61.56 -137.637)" fill="#3a8cd6"/>
          </g>
        </g>
      </g>
      <g id="Group_2874" data-name="Group 2874" transform="translate(8.334 26.673)">
        <g id="Group_2873" data-name="Group 2873">
          <g id="Group_2872" data-name="Group 2872">
            <path id="Path_4124" data-name="Path 4124" d="M52.267,137.638H47A3.993,3.993,0,0,0,43,141.631V161.9l5.271.842v-21.11A3.993,3.993,0,0,1,52.267,137.638Z" transform="translate(-43.003 -137.638)" fill="#0280ce"/>
          </g>
        </g>
      </g>
      <g id="Group_2875" data-name="Group 2875" transform="translate(14.443 7.34)">
        <path id="Path_4125" data-name="Path 4125" d="M74.527,37.874c3.374,0,1.975,2.735,1.975,6.109l4.134,6.085V74.154H96.124V43.983a6.109,6.109,0,0,0-6.109-6.109H74.527Z" transform="translate(-74.527 -37.874)" fill="#eceaec"/>
      </g>
      <g id="Group_2876" data-name="Group 2876" transform="translate(8.334 7.34)">
        <path id="Path_4126" data-name="Path 4126" d="M49.112,37.875A6.109,6.109,0,0,0,43,43.984v6.085H55.221V43.984A6.109,6.109,0,0,0,49.112,37.875Z" transform="translate(-43.003 -37.875)" fill="#dad8db"/>
      </g>
      <g id="Group_2879" data-name="Group 2879" transform="translate(47.836 0)">
        <g id="Group_2878" data-name="Group 2878">
          <g id="Group_2877" data-name="Group 2877">
            <path id="Path_4127" data-name="Path 4127" d="M272.311,14.68H249.305a2.966,2.966,0,0,1-2.465-2.471l.047-8.558c0-1.07,1.581-3.651,2.651-3.651h22.773a1.938,1.938,0,0,1,1.938,1.938v10.8A1.938,1.938,0,0,1,272.311,14.68Z" transform="translate(-246.84)" fill="#e5646e"/>
          </g>
        </g>
      </g>
      <g id="Group_2880" data-name="Group 2880" transform="translate(45.503 0)">
        <path id="Path_4128" data-name="Path 4128" d="M238.608,12.683V2a2,2,0,0,1,2-2H236.8a2,2,0,0,0-2,2V12.683a2,2,0,0,0,2,2H240.6A2,2,0,0,1,238.608,12.683Z" transform="translate(-234.799 0)" fill="#db4655"/>
      </g>
      <g id="Group_2882" data-name="Group 2882" transform="translate(47.232 33.989)">
        <g id="Group_2881" data-name="Group 2881">
          <path id="Path_4129" data-name="Path 4129" d="M262.627,185.017H246.79c-1.07,0-3.07-.713-3.07-1.783l.093-5.349c0-1.07,1.906-2.5,2.977-2.5h15.837a1.938,1.938,0,0,1,1.938,1.938v5.755A1.938,1.938,0,0,1,262.627,185.017Z" transform="translate(-243.72 -175.386)" fill="#eceaec"/>
        </g>
      </g>
      <g id="Group_2883" data-name="Group 2883" transform="translate(45.503 33.989)">
        <path id="Path_4130" data-name="Path 4130" d="M238.383,183.02v-5.638a2,2,0,0,1,2-2H236.8a2,2,0,0,0-2,2v5.638a2,2,0,0,0,2,2h3.584A2,2,0,0,1,238.383,183.02Z" transform="translate(-234.799 -175.386)" fill="#dad8db"/>
      </g>
      <g id="Group_2884" data-name="Group 2884" transform="translate(24.616 18.037)">
        <path id="Path_4131" data-name="Path 4131" d="M132.3,96.067h-3.785a1.5,1.5,0,0,1,0-2.995H132.3a1.5,1.5,0,1,1,0,2.995Z" transform="translate(-127.022 -93.072)" fill="#dad8db"/>
      </g>
      <g id="Group_2885" data-name="Group 2885" transform="translate(24.616 25.176)">
        <path id="Path_4132" data-name="Path 4132" d="M132.3,132.907h-3.785a1.5,1.5,0,0,1,0-2.995H132.3a1.5,1.5,0,1,1,0,2.995Z" transform="translate(-127.022 -129.912)" fill="#dad8db"/>
      </g>
      <g id="Group_2886" data-name="Group 2886" transform="translate(24.616 32.316)">
        <path id="Path_4133" data-name="Path 4133" d="M132.3,169.747h-3.785a1.5,1.5,0,1,1,0-2.995H132.3a1.5,1.5,0,1,1,0,2.995Z" transform="translate(-127.022 -166.752)" fill="#dad8db"/>
      </g>
      <g id="Group_2887" data-name="Group 2887" transform="translate(49.5 5.843)">
        <path id="Path_4134" data-name="Path 4134" d="M275.677,33.144H256.925a1.5,1.5,0,0,1,0-2.995h18.752a1.5,1.5,0,1,1,0,2.995Z" transform="translate(-255.428 -30.149)" fill="#eceaec"/>
      </g>
      <g id="Group_2888" data-name="Group 2888" transform="translate(15.946 42.123)">
        <path id="Path_4135" data-name="Path 4135" d="M105.487,220.352H83.782a1.5,1.5,0,0,1,0-2.995h21.705a1.5,1.5,0,1,1,0,2.995Z" transform="translate(-82.285 -217.357)" fill="#0280ce"/>
      </g>
      <g id="Group_2889" data-name="Group 2889" transform="translate(3.744 50.935)">
        <path id="Path_4136" data-name="Path 4136" d="M90.821,262.831H29.18l-9.86,17.784,1.5,2.936,37.122,3.63,25.188-4.143,8.049-19.333Z" transform="translate(-19.32 -262.831)" fill="#80b4fb"/>
      </g>
      <g id="Group_2892" data-name="Group 2892" transform="translate(4.209 71.143)">
        <g id="Group_2891" data-name="Group 2891">
          <g id="Group_2890" data-name="Group 2890">
            <path id="Path_4137" data-name="Path 4137" d="M97.1,395.185H25.941a4.194,4.194,0,0,1-4.221-3.993L22.757,367.1H81.51l7.324,11.3,12.255,7.727v5.062a3.993,3.993,0,0,1-3.993,3.993Z" transform="translate(-21.72 -367.105)" fill="#3a8cd6"/>
          </g>
        </g>
      </g>
      <g id="Group_2895" data-name="Group 2895" transform="translate(0 71.143)">
        <g id="Group_2894" data-name="Group 2894">
          <g id="Group_2893" data-name="Group 2893">
            <path id="Path_4138" data-name="Path 4138" d="M5.247,391.192V367.1H0v24.087a3.993,3.993,0,0,0,3.993,3.993H9.24a3.993,3.993,0,0,1-3.993-3.993Z" transform="translate(0 -367.105)" fill="#0280ce"/>
          </g>
        </g>
      </g>
      <g id="Group_2896" data-name="Group 2896" transform="translate(0 50.935)">
        <path id="Path_4139" data-name="Path 4139" d="M8.334,262.83,0,283.038H5.271L13.6,262.83Z" transform="translate(0 -262.83)" fill="#61a2f9"/>
      </g>
      <g id="Group_2897" data-name="Group 2897" transform="translate(63.97 51.81)">
        <path id="Path_4140" data-name="Path 4140" d="M330.091,285.585q0,.549.03,1.091l3.668,3.472,1.871-.408,3.486-3.063,4.484-14.719-1.9-4.615A20.148,20.148,0,0,0,330.091,285.585Z" transform="translate(-330.091 -267.343)" fill="#61a2f9"/>
      </g>
      <g id="Group_2900" data-name="Group 2900" transform="translate(64 71.143)">
        <g id="Group_2899" data-name="Group 2899">
          <g id="Group_2898" data-name="Group 2898">
            <path id="Path_4141" data-name="Path 4141" d="M330.245,367.1a19.972,19.972,0,0,0,1.665,6.987h8.93a2,2,0,0,1,2,2v8.6a20,20,0,0,0,6.987,1.444V367.1Z" transform="translate(-330.245 -367.105)" fill="#0280ce"/>
          </g>
        </g>
      </g>
      <g id="Group_2901" data-name="Group 2901" transform="translate(10.537 78.13)">
        <path id="Path_4142" data-name="Path 4142" d="M55.022,415.269l-.649-10.112c0-1.1,1.639-2,2.742-2H109.5l5.463,5.555,5.463,5.038v1.516a2,2,0,0,1-2,2H57.44C56.338,417.266,55.022,416.372,55.022,415.269Z" transform="translate(-54.373 -403.161)" fill="#eceaec"/>
      </g>
      <g id="Group_2902" data-name="Group 2902" transform="translate(65.664 78.13)">
        <path id="Path_4143" data-name="Path 4143" d="M349.763,413.754v-8.6a2,2,0,0,0-2-2h-8.93A20.239,20.239,0,0,0,349.763,413.754Z" transform="translate(-338.836 -403.161)" fill="#dad8db"/>
      </g>
      <g id="Group_2903" data-name="Group 2903" transform="translate(6.987 78.13)">
        <path id="Path_4144" data-name="Path 4144" d="M41.159,415.269V405.157a2,2,0,0,1,2-2h-5.1a2,2,0,0,0-2,2V415.27a2,2,0,0,0,2,2h5.1a2,2,0,0,1-2-2Z" transform="translate(-36.056 -403.161)" fill="#dad8db"/>
      </g>
      <g id="Group_2904" data-name="Group 2904" transform="translate(38.855 83.686)">
        <path id="Path_4145" data-name="Path 4145" d="M204.866,434.821h-2.875a1.5,1.5,0,0,1,0-2.995h2.875a1.5,1.5,0,1,1,0,2.995Z" transform="translate(-200.494 -431.827)" fill="#766e6e"/>
      </g>
      <g id="Group_2905" data-name="Group 2905" transform="translate(20.195 55.996)">
        <path id="Path_4146" data-name="Path 4146" d="M108.76,291.94h-3.055a1.5,1.5,0,0,1,0-2.995h3.055a1.5,1.5,0,1,1,0,2.995Z" transform="translate(-104.208 -288.946)" fill="#4591e5"/>
      </g>
      <g id="Group_2906" data-name="Group 2906" transform="translate(32.575 55.996)">
        <path id="Path_4147" data-name="Path 4147" d="M172.642,291.94h-3.055a1.5,1.5,0,0,1,0-2.995h3.055a1.5,1.5,0,1,1,0,2.995Z" transform="translate(-168.09 -288.946)" fill="#4591e5"/>
      </g>
      <g id="Group_2907" data-name="Group 2907" transform="translate(44.955 55.996)">
        <path id="Path_4148" data-name="Path 4148" d="M236.523,291.94h-3.055a1.5,1.5,0,1,1,0-2.995h3.055a1.5,1.5,0,1,1,0,2.995Z" transform="translate(-231.971 -288.946)" fill="#4591e5"/>
      </g>
      <g id="Group_2908" data-name="Group 2908" transform="translate(57.335 55.996)">
        <path id="Path_4149" data-name="Path 4149" d="M300.4,291.94H297.35a1.5,1.5,0,0,1,0-2.995H300.4a1.5,1.5,0,0,1,0,2.995Z" transform="translate(-295.853 -288.946)" fill="#4591e5"/>
      </g>
      <g id="Group_2909" data-name="Group 2909" transform="translate(20.195 62.621)">
        <path id="Path_4150" data-name="Path 4150" d="M108.76,326.127h-3.055a1.5,1.5,0,1,1,0-2.995h3.055a1.5,1.5,0,1,1,0,2.995Z" transform="translate(-104.208 -323.133)" fill="#4591e5"/>
      </g>
      <g id="Group_2910" data-name="Group 2910" transform="translate(32.575 62.621)">
        <path id="Path_4151" data-name="Path 4151" d="M172.642,326.127h-3.055a1.5,1.5,0,0,1,0-2.995h3.055a1.5,1.5,0,0,1,0,2.995Z" transform="translate(-168.09 -323.133)" fill="#4591e5"/>
      </g>
      <g id="Group_2911" data-name="Group 2911" transform="translate(44.955 62.621)">
        <path id="Path_4152" data-name="Path 4152" d="M236.523,326.127h-3.055a1.5,1.5,0,0,1,0-2.995h3.055a1.5,1.5,0,1,1,0,2.995Z" transform="translate(-231.971 -323.133)" fill="#4591e5"/>
      </g>
      <g id="Group_2912" data-name="Group 2912" transform="translate(57.335 62.621)">
        <path id="Path_4153" data-name="Path 4153" d="M300.4,326.127H297.35a1.5,1.5,0,0,1,0-2.995H300.4a1.5,1.5,0,1,1,0,2.995Z" transform="translate(-295.853 -323.133)" fill="#4591e5"/>
      </g>
      <g id="Group_2913" data-name="Group 2913" transform="translate(70.696 55.024)">
        <path id="Path_4154" data-name="Path 4154" d="M393.327,298.959A15.134,15.134,0,0,1,380.1,313.972a15.949,15.949,0,0,1-1.9-.153c-8.357,0-13.4-6.5-13.4-14.859s5.039-14.913,13.4-14.913a15.72,15.72,0,0,1,1.961-.092A15.134,15.134,0,0,1,393.327,298.959Z" transform="translate(-364.8 -283.932)" fill="#ffc269"/>
      </g>
      <g id="Group_2914" data-name="Group 2914" transform="translate(68.961 54.921)">
        <path id="Path_4155" data-name="Path 4155" d="M359.871,298.529a15.131,15.131,0,0,1,13.118-14.994,15.131,15.131,0,1,0,0,29.987,15.131,15.131,0,0,1-13.118-14.994Z" transform="translate(-355.846 -283.398)" fill="#ffa95f"/>
      </g>
    </g>
  </g>
</svg>
