<svg xmlns="http://www.w3.org/2000/svg" width="43" height="49.255" viewBox="0 0 43 49.255">
  <g id="product_1_" data-name="product (1)" transform="translate(0)">
    <path id="Path_437" data-name="Path 437" d="M122.732,26.07h17.316a1.442,1.442,0,0,0,1.443-1.443V7.215a1.442,1.442,0,0,0-1.443-1.443h-4.329V4.329a4.329,4.329,0,0,0-8.658,0V5.772h-4.329a1.442,1.442,0,0,0-1.443,1.443V24.627A1.442,1.442,0,0,0,122.732,26.07Zm7.215-21.741a1.443,1.443,0,0,1,2.886,0V5.772h-2.886Zm0,0" transform="translate(-109.621)" fill="#988149"/>
    <path id="Path_438" data-name="Path 438" d="M42.791,241.7a1.443,1.443,0,0,0-1.234-.7,6.837,6.837,0,0,0-6.055,3.663l-4.426,8.448a4.32,4.32,0,0,1-3.836,2.319h-9.8a1.443,1.443,0,0,1,0-2.886h9.8a1.441,1.441,0,0,0,1.28-.774l1.654-3.157a1.257,1.257,0,0,0-1.115-1.841h-15a7.169,7.169,0,0,0-5.1,2.114L.422,257.419a1.442,1.442,0,0,0,0,2.04l7.215,7.187a1.442,1.442,0,0,0,2.04,0l5.473-5.445H27.239a10.077,10.077,0,0,0,8.948-5.413l6.646-12.676a1.438,1.438,0,0,0-.042-1.418Zm0,0" transform="translate(0 -217.815)" fill="#988149"/>
  </g>
</svg>
