<svg xmlns="http://www.w3.org/2000/svg" width="214.67" height="214.658" viewBox="0 0 214.67 214.658">
  <g id="product" transform="translate(0.001 -0.014)">
    <g id="Group_258" data-name="Group 258" transform="translate(-0.001 51.165)">
      <g id="Group_257" data-name="Group 257" transform="translate(0)">
        <path id="Path_262" data-name="Path 262" d="M211.869,123.073a6.309,6.309,0,0,0-8.721,1.744L179.859,159.75H34.809L11.521,124.817a6.289,6.289,0,1,0-10.465,6.977l24.1,36.148V279.237a6.285,6.285,0,0,0,6.289,6.289H183.224a6.285,6.285,0,0,0,6.289-6.289v-111.3l24.1-36.148a6.289,6.289,0,0,0-1.743-8.72Z" transform="translate(0.001 -122.019)" fill="#f9b9b9"/>
      </g>
    </g>
    <g id="Group_260" data-name="Group 260" transform="translate(63.313 0.014)">
      <g id="Group_259" data-name="Group 259">
        <path id="Path_263" data-name="Path 263" d="M251.641,158.073Zm-56.6-81.755a5.9,5.9,0,0,0,4.4-1.887L237.176,36.7a5.965,5.965,0,0,0,1.384-6.791,6.273,6.273,0,0,0-5.786-3.9H207.619V6.3A6.227,6.227,0,0,0,201.33.014H188.752A6.227,6.227,0,0,0,182.463,6.3v19.7H157.308a6.274,6.274,0,0,0-5.786,3.9,5.965,5.965,0,0,0,1.384,6.791l37.733,37.733A5.9,5.9,0,0,0,195.041,76.318Z" transform="translate(-151.014 -0.014)" fill="#988149"/>
      </g>
    </g>
  </g>
</svg>
