<svg id="qr-code" xmlns="http://www.w3.org/2000/svg" width="132.277" height="132.277" viewBox="0 0 132.277 132.277">
  <path id="Path_3975" data-name="Path 3975" d="M360,0V38.905h38.905V0Zm31.124,31.124H367.781V7.781h23.343Z" transform="translate(-266.628)" fill="#7c808b"/>
  <path id="Path_3976" data-name="Path 3976" d="M420,60h7.781v7.781H420Z" transform="translate(-311.066 -44.438)" fill="#7c808b"/>
  <path id="Path_3977" data-name="Path 3977" d="M360,398.905h38.905V360H360Zm7.781-31.124h23.343v23.343H367.781Z" transform="translate(-266.628 -266.628)" fill="#7c808b"/>
  <path id="Path_3978" data-name="Path 3978" d="M420,420h7.781v7.781H420Z" transform="translate(-311.066 -311.066)" fill="#7c808b"/>
  <path id="Path_3979" data-name="Path 3979" d="M0,398.905H38.905V360H0Zm7.781-31.124H31.124v23.343H7.781Z" transform="translate(0 -266.628)" fill="#7c808b"/>
  <path id="Path_3980" data-name="Path 3980" d="M60,420h7.781v7.781H60Z" transform="translate(-44.438 -311.066)" fill="#7c808b"/>
  <path id="Path_3981" data-name="Path 3981" d="M180,480h19.453v7.781H180Z" transform="translate(-133.314 -355.504)" fill="#7c808b"/>
  <path id="Path_3982" data-name="Path 3982" d="M180,420h11.672v7.781H180Z" transform="translate(-133.314 -311.066)" fill="#7c808b"/>
  <path id="Path_3983" data-name="Path 3983" d="M90,300h7.781v7.781H90Z" transform="translate(-66.657 -222.19)" fill="#7c808b"/>
  <path id="Path_3984" data-name="Path 3984" d="M15.562,255.562H7.781V240H0v23.343H15.562Z" transform="translate(0 -177.752)" fill="#7c808b"/>
  <path id="Path_3985" data-name="Path 3985" d="M457.781,255.562H450v7.781h15.562V240h-7.781Z" transform="translate(-333.285 -177.752)" fill="#7c808b"/>
  <path id="Path_3986" data-name="Path 3986" d="M360,300h15.562v7.781H360Z" transform="translate(-266.628 -222.19)" fill="#7c808b"/>
  <path id="Path_3987" data-name="Path 3987" d="M255,300h19.453v7.781H255Z" transform="translate(-188.861 -222.19)" fill="#7c808b"/>
  <path id="Path_3988" data-name="Path 3988" d="M285,480h11.672v7.781H285Z" transform="translate(-211.08 -355.504)" fill="#7c808b"/>
  <path id="Path_3989" data-name="Path 3989" d="M266.672,375.562H255v7.781h19.453V360h-7.781Z" transform="translate(-188.861 -266.628)" fill="#7c808b"/>
  <path id="Path_3990" data-name="Path 3990" d="M157.782,323.343h19.453v-7.781H165.563V300H150v7.781h7.781Z" transform="translate(-111.096 -222.19)" fill="#7c808b"/>
  <path id="Path_3991" data-name="Path 3991" d="M285,60h11.672v7.781H285Z" transform="translate(-211.08 -44.438)" fill="#7c808b"/>
  <path id="Path_3992" data-name="Path 3992" d="M360,180h7.781v7.781H360Z" transform="translate(-266.628 -133.314)" fill="#7c808b"/>
  <path id="Path_3993" data-name="Path 3993" d="M360,240h7.781v7.781H360Z" transform="translate(-266.628 -177.752)" fill="#7c808b"/>
  <path id="Path_3994" data-name="Path 3994" d="M420,203.343h7.781V187.781h15.562V180H420Z" transform="translate(-311.066 -133.314)" fill="#7c808b"/>
  <path id="Path_3995" data-name="Path 3995" d="M255,127.781h11.672v31.124h7.781V120H255Z" transform="translate(-188.861 -88.876)" fill="#7c808b"/>
  <path id="Path_3996" data-name="Path 3996" d="M120,225.562h35.015v-7.781H127.781V210H120Z" transform="translate(-88.876 -155.533)" fill="#7c808b"/>
  <path id="Path_3997" data-name="Path 3997" d="M15.562,203.343h7.781V180H0v7.781H15.562Z" transform="translate(0 -133.314)" fill="#7c808b"/>
  <path id="Path_3998" data-name="Path 3998" d="M120,120h7.781v15.562H120Z" transform="translate(-88.876 -88.876)" fill="#7c808b"/>
  <path id="Path_3999" data-name="Path 3999" d="M180,180h19.453v7.781H180Z" transform="translate(-133.314 -133.314)" fill="#7c808b"/>
  <path id="Path_4000" data-name="Path 4000" d="M187.781,67.781h11.672V60H180V83.343h7.781Z" transform="translate(-133.314 -44.438)" fill="#7c808b"/>
  <path id="Path_4001" data-name="Path 4001" d="M255,0h19.453V7.781H255Z" transform="translate(-188.861)" fill="#7c808b"/>
  <path id="Path_4002" data-name="Path 4002" d="M7.781,7.781H23.343V0H0V23.343H7.781Z" fill="#7c808b"/>
  <path id="Path_4003" data-name="Path 4003" d="M180,0h11.672V7.781H180Z" transform="translate(-133.314)" fill="#7c808b"/>
  <path id="Path_4004" data-name="Path 4004" d="M60,23.343H83.343V0H75.562V15.562H60Z" transform="translate(-44.438)" fill="#7c808b"/>
  <path id="Path_4005" data-name="Path 4005" d="M0,120H23.343v7.781H0Z" transform="translate(0 -88.876)" fill="#7c808b"/>
</svg>
