<svg xmlns="http://www.w3.org/2000/svg" width="43" height="43" viewBox="0 0 43 43">
  <g id="_29-qr_code" data-name="29-qr code" transform="translate(-1 -1)">
    <path id="Path_492" data-name="Path 492" d="M5.161,5.161H12.1V1H3.081A2.081,2.081,0,0,0,1,3.081V12.1H5.161Z" fill="#988149"/>
    <path id="Path_493" data-name="Path 493" d="M56.016,1H47V5.161h6.935V12.1H58.1V3.081A2.081,2.081,0,0,0,56.016,1Z" transform="translate(-14.097)" fill="#988149"/>
    <path id="Path_494" data-name="Path 494" d="M5.161,47H1v9.016A2.081,2.081,0,0,0,3.081,58.1H12.1V53.935H5.161Z" transform="translate(0 -14.097)" fill="#988149"/>
    <path id="Path_495" data-name="Path 495" d="M53.935,53.935H47V58.1h9.016A2.081,2.081,0,0,0,58.1,56.016V47H53.935Z" transform="translate(-14.097 -14.097)" fill="#988149"/>
    <path id="Path_496" data-name="Path 496" d="M11,20.71h9.71V11H11Zm2.774-6.935h4.161v4.161H13.774Z" transform="translate(-3.065 -3.065)" fill="#988149"/>
    <path id="Path_497" data-name="Path 497" d="M11,48.71h9.71V39H11Zm2.774-6.935h4.161v4.161H13.774Z" transform="translate(-3.065 -11.645)" fill="#988149"/>
    <path id="Path_498" data-name="Path 498" d="M48.71,11H39v9.71h9.71Zm-2.774,6.935H41.774V13.774h4.161Z" transform="translate(-11.645 -3.065)" fill="#988149"/>
    <path id="Path_499" data-name="Path 499" d="M11,27.645H25.565a2.081,2.081,0,0,0,2.081-2.081V11H23.484V23.484H11Z" transform="translate(-3.065 -3.065)" fill="#988149"/>
    <path id="Path_500" data-name="Path 500" d="M45.645,43.565V29H41.484V41.484H29v4.161H43.565a2.081,2.081,0,0,0,2.081-2.081Z" transform="translate(-8.581 -8.581)" fill="#988149"/>
    <path id="Path_501" data-name="Path 501" d="M39,39h4.161v4.161H39Z" transform="translate(-11.645 -11.645)" fill="#988149"/>
    <path id="Path_502" data-name="Path 502" d="M39,29h4.161v4.161H39Z" transform="translate(-11.645 -8.581)" fill="#988149"/>
    <path id="Path_503" data-name="Path 503" d="M29,39h4.161v4.161H29Z" transform="translate(-8.581 -11.645)" fill="#988149"/>
  </g>
</svg>
