<svg xmlns="http://www.w3.org/2000/svg" width="195" height="195" viewBox="0 0 195 195">
  <g id="Group_2924" data-name="Group 2924" transform="translate(-885 -239)">
    <circle id="Ellipse_19" data-name="Ellipse 19" cx="97.5" cy="97.5" r="97.5" transform="translate(885 239)" fill="#f4f6f9"/>
    <g id="Icons" transform="translate(923 277)">
      <g id="Group_2678" data-name="Group 2678" transform="translate(4 4)">
        <g id="Group_2608" data-name="Group 2608" transform="translate(0 79.765)">
          <g id="Group_2586" data-name="Group 2586">
            <g id="Group_2585" data-name="Group 2585">
              <g id="Group_2584" data-name="Group 2584">
                <path id="Path_388" data-name="Path 388" d="M31.918,67.929H7.988A3.987,3.987,0,0,1,4,63.941V47.988A3.987,3.987,0,0,1,7.988,44H31.918a3.987,3.987,0,0,1,3.988,3.988V63.941A3.987,3.987,0,0,1,31.918,67.929Z" transform="translate(-4 -44)" fill="#0a5078"/>
              </g>
            </g>
          </g>
          <g id="Group_2589" data-name="Group 2589" transform="translate(3.988 3.988)">
            <g id="Group_2588" data-name="Group 2588">
              <g id="Group_2587" data-name="Group 2587">
                <path id="Path_389" data-name="Path 389" d="M27.935,61.953H7.994A2,2,0,0,1,6,59.959V47.994A2,2,0,0,1,7.994,46H27.935a2,2,0,0,1,1.994,1.994V59.959A2,2,0,0,1,27.935,61.953Z" transform="translate(-6 -46)" fill="#988149"/>
              </g>
            </g>
          </g>
          <g id="Group_2592" data-name="Group 2592" transform="translate(7.897 10.313)">
            <g id="Group_2591" data-name="Group 2591" transform="translate(0 0)">
              <g id="Group_2590" data-name="Group 2590">
                <circle id="Ellipse_20" data-name="Ellipse 20" cx="1.902" cy="1.902" r="1.902" fill="#fff"/>
              </g>
            </g>
          </g>
          <g id="Group_2595" data-name="Group 2595" transform="translate(13.984 10.313)">
            <g id="Group_2594" data-name="Group 2594" transform="translate(0 0)">
              <g id="Group_2593" data-name="Group 2593">
                <circle id="Ellipse_21" data-name="Ellipse 21" cx="1.902" cy="1.902" r="1.902" fill="#fff"/>
              </g>
            </g>
          </g>
          <g id="Group_2598" data-name="Group 2598" transform="translate(20.071 10.313)">
            <g id="Group_2597" data-name="Group 2597" transform="translate(0 0)">
              <g id="Group_2596" data-name="Group 2596">
                <circle id="Ellipse_22" data-name="Ellipse 22" cx="1.902" cy="1.902" r="1.902" fill="#fff"/>
              </g>
            </g>
          </g>
          <g id="Group_2601" data-name="Group 2601" transform="translate(11.965 23.929)">
            <g id="Group_2600" data-name="Group 2600">
              <g id="Group_2599" data-name="Group 2599">
                <path id="Path_390" data-name="Path 390" d="M10,56h7.976v7.976H10Z" transform="translate(-10 -56)" fill="#0a5078"/>
              </g>
            </g>
          </g>
          <g id="Group_2604" data-name="Group 2604" transform="translate(3.988 27.918)">
            <g id="Group_2603" data-name="Group 2603">
              <g id="Group_2602" data-name="Group 2602">
                <path id="Path_391" data-name="Path 391" d="M25.941,58H9.988A3.987,3.987,0,0,0,6,61.988H29.929A3.987,3.987,0,0,0,25.941,58Z" transform="translate(-6 -58)" fill="#0a5078"/>
              </g>
            </g>
          </g>
          <g id="Group_2607" data-name="Group 2607" transform="translate(11.965 23.929)">
            <g id="Group_2606" data-name="Group 2606">
              <g id="Group_2605" data-name="Group 2605">
                <path id="Path_392" data-name="Path 392" d="M10,56h7.976v1.994H10Z" transform="translate(-10 -56)" fill="#00325a"/>
              </g>
            </g>
          </g>
        </g>
        <g id="Group_2633" data-name="Group 2633" transform="translate(39.882 79.765)">
          <g id="Group_2611" data-name="Group 2611">
            <g id="Group_2610" data-name="Group 2610">
              <g id="Group_2609" data-name="Group 2609">
                <path id="Path_393" data-name="Path 393" d="M51.918,67.929H27.988A3.987,3.987,0,0,1,24,63.941V47.988A3.987,3.987,0,0,1,27.988,44H51.918a3.987,3.987,0,0,1,3.988,3.988V63.941A3.987,3.987,0,0,1,51.918,67.929Z" transform="translate(-24 -44)" fill="#0a5078"/>
              </g>
            </g>
          </g>
          <g id="Group_2614" data-name="Group 2614" transform="translate(3.988 3.988)">
            <g id="Group_2613" data-name="Group 2613">
              <g id="Group_2612" data-name="Group 2612">
                <path id="Path_394" data-name="Path 394" d="M47.935,61.953H27.994A2,2,0,0,1,26,59.959V47.994A2,2,0,0,1,27.994,46H47.935a2,2,0,0,1,1.994,1.994V59.959A2,2,0,0,1,47.935,61.953Z" transform="translate(-26 -46)" fill="#988149"/>
              </g>
            </g>
          </g>
          <g id="Group_2617" data-name="Group 2617" transform="translate(8.344 10.313)">
            <g id="Group_2616" data-name="Group 2616" transform="translate(0 0)">
              <g id="Group_2615" data-name="Group 2615">
                <circle id="Ellipse_23" data-name="Ellipse 23" cx="1.902" cy="1.902" r="1.902" fill="#fff"/>
              </g>
            </g>
          </g>
          <g id="Group_2620" data-name="Group 2620" transform="translate(13.671 10.313)">
            <g id="Group_2619" data-name="Group 2619" transform="translate(0 0)">
              <g id="Group_2618" data-name="Group 2618">
                <ellipse id="Ellipse_24" data-name="Ellipse 24" cx="2.283" cy="1.902" rx="2.283" ry="1.902" fill="#fff"/>
              </g>
            </g>
          </g>
          <g id="Group_2623" data-name="Group 2623" transform="translate(19.757 10.313)">
            <g id="Group_2622" data-name="Group 2622" transform="translate(0 0)">
              <g id="Group_2621" data-name="Group 2621">
                <circle id="Ellipse_25" data-name="Ellipse 25" cx="1.902" cy="1.902" r="1.902" fill="#fff"/>
              </g>
            </g>
          </g>
          <g id="Group_2626" data-name="Group 2626" transform="translate(11.965 23.929)">
            <g id="Group_2625" data-name="Group 2625">
              <g id="Group_2624" data-name="Group 2624">
                <path id="Path_395" data-name="Path 395" d="M30,56h7.976v7.976H30Z" transform="translate(-30 -56)" fill="#0a5078"/>
              </g>
            </g>
          </g>
          <g id="Group_2629" data-name="Group 2629" transform="translate(3.988 27.918)">
            <g id="Group_2628" data-name="Group 2628">
              <g id="Group_2627" data-name="Group 2627">
                <path id="Path_396" data-name="Path 396" d="M45.941,58H29.988A3.987,3.987,0,0,0,26,61.988H49.929A3.987,3.987,0,0,0,45.941,58Z" transform="translate(-26 -58)" fill="#0a5078"/>
              </g>
            </g>
          </g>
          <g id="Group_2632" data-name="Group 2632" transform="translate(11.965 23.929)">
            <g id="Group_2631" data-name="Group 2631">
              <g id="Group_2630" data-name="Group 2630">
                <path id="Path_397" data-name="Path 397" d="M30,56h7.976v1.994H30Z" transform="translate(-30 -56)" fill="#00325a"/>
              </g>
            </g>
          </g>
        </g>
        <g id="Group_2658" data-name="Group 2658" transform="translate(79.765 79.765)">
          <g id="Group_2636" data-name="Group 2636">
            <g id="Group_2635" data-name="Group 2635">
              <g id="Group_2634" data-name="Group 2634">
                <path id="Path_398" data-name="Path 398" d="M71.918,67.929H47.988A3.987,3.987,0,0,1,44,63.941V47.988A3.987,3.987,0,0,1,47.988,44H71.918a3.987,3.987,0,0,1,3.988,3.988V63.941A3.987,3.987,0,0,1,71.918,67.929Z" transform="translate(-44 -44)" fill="#0a5078"/>
              </g>
            </g>
          </g>
          <g id="Group_2639" data-name="Group 2639" transform="translate(3.988 3.988)">
            <g id="Group_2638" data-name="Group 2638">
              <g id="Group_2637" data-name="Group 2637">
                <path id="Path_399" data-name="Path 399" d="M67.935,61.953H47.994A2,2,0,0,1,46,59.959V47.994A2,2,0,0,1,47.994,46H67.935a2,2,0,0,1,1.994,1.994V59.959A2,2,0,0,1,67.935,61.953Z" transform="translate(-46 -46)" fill="#988149"/>
              </g>
            </g>
          </g>
          <g id="Group_2642" data-name="Group 2642" transform="translate(8.03 10.313)">
            <g id="Group_2641" data-name="Group 2641" transform="translate(0 0)">
              <g id="Group_2640" data-name="Group 2640">
                <circle id="Ellipse_26" data-name="Ellipse 26" cx="1.902" cy="1.902" r="1.902" fill="#fff"/>
              </g>
            </g>
          </g>
          <g id="Group_2645" data-name="Group 2645" transform="translate(14.117 10.313)">
            <g id="Group_2644" data-name="Group 2644" transform="translate(0 0)">
              <g id="Group_2643" data-name="Group 2643">
                <circle id="Ellipse_27" data-name="Ellipse 27" cx="1.902" cy="1.902" r="1.902" fill="#fff"/>
              </g>
            </g>
          </g>
          <g id="Group_2648" data-name="Group 2648" transform="translate(20.205 10.313)">
            <g id="Group_2647" data-name="Group 2647" transform="translate(0 0)">
              <g id="Group_2646" data-name="Group 2646">
                <circle id="Ellipse_28" data-name="Ellipse 28" cx="1.902" cy="1.902" r="1.902" fill="#fff"/>
              </g>
            </g>
          </g>
          <g id="Group_2651" data-name="Group 2651" transform="translate(11.965 23.929)">
            <g id="Group_2650" data-name="Group 2650">
              <g id="Group_2649" data-name="Group 2649">
                <path id="Path_400" data-name="Path 400" d="M50,56h7.976v7.976H50Z" transform="translate(-50 -56)" fill="#0a5078"/>
              </g>
            </g>
          </g>
          <g id="Group_2654" data-name="Group 2654" transform="translate(3.988 27.918)">
            <g id="Group_2653" data-name="Group 2653">
              <g id="Group_2652" data-name="Group 2652">
                <path id="Path_401" data-name="Path 401" d="M65.941,58H49.988A3.987,3.987,0,0,0,46,61.988H69.929A3.987,3.987,0,0,0,65.941,58Z" transform="translate(-46 -58)" fill="#0a5078"/>
              </g>
            </g>
          </g>
          <g id="Group_2657" data-name="Group 2657" transform="translate(11.965 23.929)">
            <g id="Group_2656" data-name="Group 2656">
              <g id="Group_2655" data-name="Group 2655">
                <path id="Path_402" data-name="Path 402" d="M50,56h7.976v1.994H50Z" transform="translate(-50 -56)" fill="#00325a"/>
              </g>
            </g>
          </g>
        </g>
        <g id="Group_2661" data-name="Group 2661" transform="translate(27.68 0.287)">
          <g id="Group_2660" data-name="Group 2660" transform="translate(0)">
            <g id="Group_2659" data-name="Group 2659">
              <ellipse id="Ellipse_29" data-name="Ellipse 29" cx="28.155" cy="27.774" rx="28.155" ry="27.774" fill="#f8d5cf"/>
            </g>
          </g>
        </g>
        <path id="Path_403" data-name="Path 403" d="M70.611,10.134a1.99,1.99,0,0,0-2.174.433l-2.2,2.2A27.92,27.92,0,0,0,18,31.918a1.994,1.994,0,0,0,3.988,0A23.932,23.932,0,0,1,63.414,15.59l-2.953,2.953a1.994,1.994,0,0,0,1.41,3.4h7.976a1.992,1.992,0,0,0,1.994-1.994V11.976a1.992,1.992,0,0,0-1.23-1.843Z" transform="translate(9.918 -4)" fill="#7c808b"/>
        <path id="Path_404" data-name="Path 404" d="M70.847,17a1.992,1.992,0,0,0-1.994,1.994A23.932,23.932,0,0,1,27.427,35.322l2.953-2.953a1.994,1.994,0,0,0-1.41-3.4H20.994A1.992,1.992,0,0,0,19,30.959v7.976a1.992,1.992,0,0,0,1.23,1.843,1.969,1.969,0,0,0,.764.152,2,2,0,0,0,1.41-.584l2.2-2.2a27.739,27.739,0,0,0,20.318,8.768A27.948,27.948,0,0,0,72.841,18.994,1.992,1.992,0,0,0,70.847,17Z" transform="translate(10.912 8.924)" fill="#7c808b"/>
        <g id="Group_2664" data-name="Group 2664" transform="translate(40.754 13.959)">
          <g id="Group_2663" data-name="Group 2663" transform="translate(0 0)">
            <g id="Group_2662" data-name="Group 2662">
              <path id="Path_405" data-name="Path 405" d="M25.436,30.479l2.327-1.344a11.916,11.916,0,0,1-.209-2.182,12.094,12.094,0,0,1,.207-2.182l-2.327-1.344A2,2,0,0,1,24.7,20.7L26.7,17.25a2,2,0,0,1,2.724-.73l1.179.68a1.936,1.936,0,0,0,2.07-.05,11.9,11.9,0,0,1,1.779-1.025,1.934,1.934,0,0,0,1.081-1.769V12.994A2,2,0,0,1,37.524,11h3.988a2,2,0,0,1,1.994,1.994v1.362a1.936,1.936,0,0,0,1.079,1.769,11.9,11.9,0,0,1,1.779,1.025,1.936,1.936,0,0,0,2.07.05l1.179-.68a2,2,0,0,1,2.724.73L54.331,20.7a2,2,0,0,1-.73,2.724l-2.327,1.344a11.916,11.916,0,0,1,.209,2.182,12.094,12.094,0,0,1-.207,2.182L53.6,30.479a2,2,0,0,1,.73,2.724l-1.994,3.454a2,2,0,0,1-2.724.73l-1.179-.68a1.936,1.936,0,0,0-2.07.05,11.9,11.9,0,0,1-1.779,1.025,1.934,1.934,0,0,0-1.081,1.769v1.362a2,2,0,0,1-1.994,1.994H37.524a2,2,0,0,1-1.994-1.994V39.55a1.936,1.936,0,0,0-1.079-1.769,11.9,11.9,0,0,1-1.779-1.025,1.936,1.936,0,0,0-2.07-.05l-1.179.68a2,2,0,0,1-2.724-.73L24.706,33.2A2,2,0,0,1,25.436,30.479Zm14.082,4.451a7.976,7.976,0,1,0-7.976-7.976A7.977,7.977,0,0,0,39.519,34.929Z" transform="translate(-24.437 -11)" fill="#aa7c0e"/>
            </g>
          </g>
        </g>
        <g id="Group_2667" data-name="Group 2667" transform="translate(40.754 11.965)">
          <g id="Group_2666" data-name="Group 2666">
            <g id="Group_2665" data-name="Group 2665">
              <path id="Path_406" data-name="Path 406" d="M25.436,29.479l2.327-1.344a11.916,11.916,0,0,1-.209-2.182,12.094,12.094,0,0,1,.207-2.182l-2.327-1.344A2,2,0,0,1,24.7,19.7L26.7,16.25a2,2,0,0,1,2.724-.73l1.179.68a1.936,1.936,0,0,0,2.07-.05,11.9,11.9,0,0,1,1.779-1.025,1.934,1.934,0,0,0,1.081-1.769V11.994A2,2,0,0,1,37.524,10h3.988a2,2,0,0,1,1.994,1.994v1.362a1.936,1.936,0,0,0,1.079,1.769,11.9,11.9,0,0,1,1.779,1.025,1.936,1.936,0,0,0,2.07.05l1.179-.68a2,2,0,0,1,2.724.73L54.331,19.7a2,2,0,0,1-.73,2.724l-2.327,1.344a11.916,11.916,0,0,1,.209,2.182,12.094,12.094,0,0,1-.207,2.182L53.6,29.479a2,2,0,0,1,.73,2.724l-1.994,3.454a2,2,0,0,1-2.724.73l-1.179-.68a1.936,1.936,0,0,0-2.07.05,11.9,11.9,0,0,1-1.779,1.025,1.934,1.934,0,0,0-1.081,1.769v1.362a2,2,0,0,1-1.994,1.994H37.524a2,2,0,0,1-1.994-1.994V38.55a1.936,1.936,0,0,0-1.079-1.769,11.9,11.9,0,0,1-1.779-1.025,1.936,1.936,0,0,0-2.07-.05l-1.179.68a2,2,0,0,1-2.724-.73L24.706,32.2A2,2,0,0,1,25.436,29.479Zm14.082,4.451a7.976,7.976,0,1,0-7.976-7.976A7.977,7.977,0,0,0,39.519,33.929Z" transform="translate(-24.437 -10)" fill="#988149"/>
            </g>
          </g>
        </g>
        <g id="Group_2668" data-name="Group 2668" transform="translate(3.988 19.94)">
          <path id="Path_407" data-name="Path 407" d="M43.369,40.567l-5.982-5.982a1.992,1.992,0,0,0-2.82,0l-5.982,5.982a1.994,1.994,0,0,0,1.41,3.4h3.988v9.971h3.988V43.971h3.988a1.994,1.994,0,0,0,1.41-3.4Z" transform="translate(15.871 5.884)" fill="#988149"/>
          <path id="Path_408" data-name="Path 408" d="M17.2,29.8a1.969,1.969,0,0,0,.764.152,2,2,0,0,0,1.41-.584l5.982-5.982a1.992,1.992,0,0,0,0-2.82l-5.982-5.982a1.994,1.994,0,0,0-3.4,1.41v3.988H11.982A5.99,5.99,0,0,0,6,25.965V48.243a5.938,5.938,0,0,0,1.753,4.23l7.634,7.633a2,2,0,0,1,.584,1.41V73.824h3.988V61.516a5.946,5.946,0,0,0-1.753-4.23l-7.634-7.634a2,2,0,0,1-.584-1.41V25.965a2,2,0,0,1,1.994-1.994h3.988v3.988A1.992,1.992,0,0,0,17.2,29.8Z" transform="translate(-6 -13.998)" fill="#988149"/>
          <path id="Path_409" data-name="Path 409" d="M61.959,19.983H57.971V15.995a1.994,1.994,0,0,0-3.4-1.41l-5.982,5.982a1.992,1.992,0,0,0,0,2.82l5.982,5.982a2,2,0,0,0,1.41.584,1.969,1.969,0,0,0,.764-.152,1.992,1.992,0,0,0,1.23-1.843V23.971h3.988a2,2,0,0,1,1.994,1.994V48.244a2,2,0,0,1-.584,1.41l-7.634,7.633a5.938,5.938,0,0,0-1.753,4.23V73.825h3.988V61.517a2,2,0,0,1,.584-1.41l7.633-7.633a5.947,5.947,0,0,0,1.753-4.23V25.966a5.99,5.99,0,0,0-5.982-5.982Z" transform="translate(35.753 -13.999)" fill="#988149"/>
        </g>
        <g id="Group_2671" data-name="Group 2671" transform="translate(13.959 77.771)">
          <g id="Group_2670" data-name="Group 2670" transform="translate(0)">
            <g id="Group_2669" data-name="Group 2669">
              <path id="Path_410" data-name="Path 410" d="M11,43h3.988v1.994H11Z" transform="translate(-11 -43)" fill="#988149"/>
            </g>
          </g>
        </g>
        <g id="Group_2674" data-name="Group 2674" transform="translate(53.841 77.771)">
          <g id="Group_2673" data-name="Group 2673">
            <g id="Group_2672" data-name="Group 2672">
              <path id="Path_411" data-name="Path 411" d="M31,43h3.988v1.994H31Z" transform="translate(-31 -43)" fill="#988149"/>
            </g>
          </g>
        </g>
        <g id="Group_2677" data-name="Group 2677" transform="translate(93.724 77.771)">
          <g id="Group_2676" data-name="Group 2676">
            <g id="Group_2675" data-name="Group 2675">
              <path id="Path_412" data-name="Path 412" d="M51,43h3.988v1.994H51Z" transform="translate(-51 -43)" fill="#988149"/>
            </g>
          </g>
        </g>
      </g>
    </g>
  </g>
</svg>
