<svg xmlns="http://www.w3.org/2000/svg" width="43.001" height="47.156" viewBox="0 0 43.001 47.156">
  <g id="tax_1_" data-name="tax (1)" transform="translate(-13.085)">
    <path id="Path_470" data-name="Path 470" d="M127.681,151.524a12.4,12.4,0,1,0,12.4-12.4A12.4,12.4,0,0,0,127.681,151.524Zm7.558-4.844a1.65,1.65,0,1,1-.484,1.167A1.664,1.664,0,0,1,135.239,146.68Zm9.689,9.687a1.65,1.65,0,1,1,.484-1.167A1.664,1.664,0,0,1,144.928,156.367Zm-.022-9.666a1.651,1.651,0,0,1,0,2.335l-7.309,7.309a1.651,1.651,0,1,1-2.335-2.335l7.309-7.309A1.652,1.652,0,0,1,144.906,146.7Z" transform="translate(-96.401 -117.032)" fill="#988149"/>
    <path id="Path_471" data-name="Path 471" d="M27.978,34.492A15.723,15.723,0,0,1,43.683,18.786q.431,0,.855.024V1.651A1.651,1.651,0,0,0,42.887,0H14.736a1.651,1.651,0,0,0-1.651,1.651V45.5a1.651,1.651,0,0,0,1.651,1.651h19.67A15.692,15.692,0,0,1,27.978,34.492ZM22.422,8.771H34.117a1.651,1.651,0,1,1,0,3.3H22.422a1.651,1.651,0,1,1,0-3.3Zm0,8.771H34.117a1.651,1.651,0,1,1,0,3.3H22.422a1.651,1.651,0,1,1,0-3.3Zm2.924,12.073H22.422a1.651,1.651,0,1,1,0-3.3h2.924a1.651,1.651,0,0,1,0,3.3Z" fill="#988149"/>
  </g>
</svg>
