<svg xmlns="http://www.w3.org/2000/svg" width="43" height="51.571" viewBox="0 0 43 51.571">
  <g id="toxic-warning-sign" transform="translate(-4.463 0)">
    <path id="Path_480" data-name="Path 480" d="M10.79,52.753H41.332a3.841,3.841,0,0,0,3.841-3.841v-19.2H6.949v19.2A3.841,3.841,0,0,0,10.79,52.753Z" transform="translate(-0.099 -1.183)" fill="#988149"/>
    <path id="Path_481" data-name="Path 481" d="M4.463,21.4v5.155h43V21.4a3.841,3.841,0,0,0-3.841-3.841H32.379c5.34,0,13.017-5.182,11.335-10.677C42.31,2.295,38.093-.027,33.785,0,27.7.035,26.126,12.787,26.126,12.787h-.163S24.387.035,18.3,0C13.994-.027,9.779,2.295,8.374,6.885c-1.683,5.5,6,10.677,11.337,10.677H8.3A3.841,3.841,0,0,0,4.463,21.4Zm33.8-16.769S38.07,10.911,29.637,15.6C29.638,15.6,31.231,7.54,38.259,4.635Zm-24.358,0c7.026,2.9,8.619,10.962,8.619,10.962C14.088,10.911,13.9,4.635,13.9,4.635Z" transform="translate(0 0)" fill="#988149"/>
  </g>
</svg>
