<svg xmlns="http://www.w3.org/2000/svg" width="129" height="129" viewBox="0 0 129 129">
  <g id="admin" transform="translate(0.147 0.137)">
    <circle id="Ellipse_2" data-name="Ellipse 2" cx="64.5" cy="64.5" r="64.5" transform="translate(-0.147 -0.136)" fill="#f9b9b8"/>
    <g id="Group_1" data-name="Group 1" transform="translate(26.325 22.477)">
      <path id="Path_82" data-name="Path 82" d="M31.171,6.012c4.093,0,7.408,3.62,7.4,8.08,0,3.811-.006,10.916-.006,10.916A16.721,16.721,0,0,1,29.106,40.4v0C19.06,44.915,8.005,36.839,8,25.008c0-.878.006-9.814.006-10.938C8.009,9.61,11.33,6,15.423,6Z" transform="translate(14.928 5.466)" fill="#ffebd2"/>
      <path id="Path_83" data-name="Path 83" d="M26.061,3C36.548,3,44.436,9.867,44.436,18.337c0,4.225-.895,5.869-1.769,6.7,0,0-.042-.145-.125-.416V24.6a31.768,31.768,0,0,0-3.6-7.637.02.02,0,0,0-.02-.021,4.671,4.671,0,0,0-.271-.4c-.084-.145-.188-.271-.292-.416s-.187-.271-.291-.416c-.4-.562-.832-1.1-1.29-1.644v.021a.02.02,0,0,0-.021-.021c-2.517,5.1-5.326,6.867-7.721,7.492-.02,0-.02.021-.042.021h-.02c-.1.021-.229.062-.333.083h-.021l-.313.062H28.29a15.08,15.08,0,0,1-2.622.167c.188-.188.375-.354.542-.542l.479-.479.02-.021c.146-.167.292-.312.437-.458l.02-.021.1-.1c.1-.1.208-.228.312-.333.125-.146.229-.271.355-.4a.02.02,0,0,0,.02-.021,15.423,15.423,0,0,0,1.707-2.164l-.02.021.02-.021s-2.289,1.1-5.618,2.539h-.021c-.1.042-.229.1-.353.146-3.268,1.394-7.43,3.038-11.383,4.287a6.015,6.015,0,0,0-1.478,1.124c-.042.042-.083.1-.126.145a.02.02,0,0,1-.021.021,3.949,3.949,0,0,0-.353.458,7.948,7.948,0,0,0-1.145,3.579v.1c-.063.333-.1.541-.25.561C7.479,24.5,7,21.25,7,18.4,7,9.93,15.512,3.062,26,3.062Z" transform="translate(12.105 -3)" fill="#42434d"/>
      <path id="Path_84" data-name="Path 84" d="M29.49,13.969c2.914,3.454,6.68,5.556,10.78,5.556a13.933,13.933,0,0,0,10.155-4.848c.02.52.1,1.227.1,1.561,0,.228,0,.436-.021.644a28.77,28.77,0,0,0,2.331,2.1c6.347,5.2,17.814,6.659,21.434,13.755.811,1.581,3.538,10.779,4.162,17.438a285.676,285.676,0,0,1-40.162,2.706A292.156,292.156,0,0,1,2,50.678c.646-6.867,3.038-16.4,4-18.4C9.45,25.1,20.188,24.625,26.516,19.422a26.333,26.333,0,0,0,2.829-2.663c0-.187-.019-.355-.019-.542,0-.5.041-1.436.1-2.268Z" transform="translate(-2.001 27.897)" fill="#ffdfba"/>
    </g>
  </g>
</svg>
