<svg xmlns="http://www.w3.org/2000/svg" width="17" height="17.001" viewBox="0 0 17 17.001">
  <g id="customer_1_" data-name="customer (1)" transform="translate(-0.023)">
    <g id="Group_187" data-name="Group 187" transform="translate(6.997)">
      <g id="Group_186" data-name="Group 186">
        <path id="Path_240" data-name="Path 240" d="M212.054,0a2.051,2.051,0,0,0-2.025,2.025,2.051,2.051,0,0,0,2.025,2.025,2.026,2.026,0,0,0,0-4.051Z" transform="translate(-210.029)" fill="#988149"/>
      </g>
    </g>
    <g id="Group_189" data-name="Group 189" transform="translate(6.001 4.051)">
      <g id="Group_188" data-name="Group 188">
        <path id="Path_241" data-name="Path 241" d="M185.262,122a2.97,2.97,0,0,1-2.211,1,3.043,3.043,0,0,1-2.244-1,2.966,2.966,0,0,0-.777,1.992v.5a.5.5,0,0,0,.5.5h5.014a.5.5,0,0,0,.5-.5v-.5A2.965,2.965,0,0,0,185.262,122Z" transform="translate(-180.029 -122)" fill="#988149"/>
      </g>
    </g>
    <g id="Group_191" data-name="Group 191" transform="translate(0.024 9.647)">
      <g id="Group_190" data-name="Group 190" transform="translate(0)">
        <path id="Path_242" data-name="Path 242" d="M4.836,296.172,2.3,291.083a1,1,0,0,0-1.334-.448l-.663.329a.5.5,0,0,0-.224.669l2.988,5.977a.5.5,0,0,0,.667.224l.655-.324A1,1,0,0,0,4.836,296.172Z" transform="translate(-0.024 -290.532)" fill="#988149"/>
      </g>
    </g>
    <g id="Group_193" data-name="Group 193" transform="translate(2.979 7.852)">
      <g id="Group_192" data-name="Group 192">
        <path id="Path_243" data-name="Path 243" d="M102.653,236.851a.993.993,0,0,0-1.315.13l-2.723,3.347a1.2,1.2,0,0,1-.737.319H95.558a.5.5,0,0,1,0-1H97.55a1,1,0,0,0,0-1.992H94.94c-.248,0-.372-.157-.568-.329a3.466,3.466,0,0,0-3.092-.757,3.634,3.634,0,0,0-1.529.763l-.015-.012-.72.634,2.831,5.677h5.7a3,3,0,0,0,2.391-1.2l2.922-4.184A1,1,0,0,0,102.653,236.851Z" transform="translate(-89.016 -236.479)" fill="#988149"/>
      </g>
    </g>
  </g>
</svg>
