<svg xmlns="http://www.w3.org/2000/svg" width="17" height="12.335" viewBox="0 0 17 12.335">
  <g id="handshake_1_" data-name="handshake (1)" transform="translate(-5.326 -16.13)">
    <path id="Path_4114" data-name="Path 4114" d="M31.436,65.561a.648.648,0,0,0,.032.282.792.792,0,0,0,.5.485.535.535,0,0,0,.483-.047l.439-.471a.552.552,0,0,0,.085-.564.945.945,0,0,0-.745-.536Z" transform="translate(-20.522 -38.187)" fill="#988149"/>
    <path id="Path_4115" data-name="Path 4115" d="M25.3,57.192l-.768.823a.673.673,0,0,0-.114.68.9.9,0,0,0,.577.559.639.639,0,0,0,.658-.15l.711-.762a.668.668,0,0,0,.114-.679A.9.9,0,0,0,25.9,57.1a.574.574,0,0,0-.6.088Z" transform="translate(-14.977 -32.175)" fill="#988149"/>
    <path id="Path_4116" data-name="Path 4116" d="M18.408,50.672l-.709.761a.675.675,0,0,0-.114.681.9.9,0,0,0,.577.558.654.654,0,0,0,.582-.067l.787-.844a.67.67,0,0,0,.114-.68.9.9,0,0,0-.577-.558A.65.65,0,0,0,18.408,50.672Z" transform="translate(-9.603 -27.01)" fill="#988149"/>
    <path id="Path_4117" data-name="Path 4117" d="M11.643,43.9l-.786.845a.666.666,0,0,0-.114.677.9.9,0,0,0,.577.56.651.651,0,0,0,.58-.068l.788-.844h0A.663.663,0,0,0,12.8,44.4a.894.894,0,0,0-.577-.559.554.554,0,0,0-.583.067Z" transform="translate(-4.224 -21.74)" fill="#988149"/>
    <path id="Path_4118" data-name="Path 4118" d="M38.963,20.779a4.763,4.763,0,0,1-1.9.384,5.647,5.647,0,0,0-1.443.216l-2.145.791a.19.19,0,0,1-.045.011l-.285.042c-.522.074-.583.1-.643.251a.562.562,0,0,0,.154.524,1.5,1.5,0,0,0,1.57.362l1.221-.161a2.26,2.26,0,0,1,1.67.718L40.4,26.544h0a4.65,4.65,0,0,0,1.9-1.318Z" transform="translate(-21.346 -3.654)" fill="#988149"/>
    <path id="Path_4119" data-name="Path 4119" d="M18.177,19.981c-.195.018-.418.043-.652.067a11.033,11.033,0,0,1-2.377.125l-3.361,4.374a1.9,1.9,0,0,1,.309.37,1.1,1.1,0,0,1,1.119-.265,1.378,1.378,0,0,1,.886.859,1.237,1.237,0,0,1,.064.519,1.189,1.189,0,0,1,.513.039,1.375,1.375,0,0,1,.885.859,1.232,1.232,0,0,1,.066.518,1.173,1.173,0,0,1,.513.04,1.381,1.381,0,0,1,.884.857,1.227,1.227,0,0,1,.02.76,1.124,1.124,0,0,1,.126.031,1.277,1.277,0,0,1,.8.777,1.048,1.048,0,0,1-.136,1l.6.477a.522.522,0,0,0,.557.032.8.8,0,0,0,.426-.554.633.633,0,0,0-.009-.284l-.756-.6a.244.244,0,0,1-.04-.336.232.232,0,0,1,.33-.041l.909.729a.653.653,0,0,0,.586-.02.909.909,0,0,0,.49-.639.668.668,0,0,0-.209-.654l-.822-.658a.241.241,0,0,1-.04-.335.229.229,0,0,1,.329-.041l1.2.956a.642.642,0,0,0,.676.051.912.912,0,0,0,.489-.64.666.666,0,0,0-.211-.654l-1.2-.955a.244.244,0,0,1-.04-.338.233.233,0,0,1,.33-.04s1.816,1.452,1.817,1.452a.649.649,0,0,0,.584-.022.9.9,0,0,0,.491-.638.667.667,0,0,0-.211-.654l-3.554-2.844a1.847,1.847,0,0,0-1.318-.615l-1.2.156a1.971,1.971,0,0,1-2.008-.518,1.031,1.031,0,0,1-.236-1.013c.167-.432.487-.477,1.015-.551.079-.01.164-.022.257-.037l2.123-.783a2.95,2.95,0,0,1,.449-.118,3.076,3.076,0,0,0-1.464-.19Z" transform="translate(-5.079 -3.016)" fill="#988149"/>
    <path id="Path_4120" data-name="Path 4120" d="M8.485,16.151c-.387-.029-.74.262-1.248.924l-1.3,1.693c-.47.611-.646.99-.607,1.312a1.1,1.1,0,0,0,.4.67l.616.492,3.347-4.356-.433-.347a1.5,1.5,0,0,0-.774-.388Z" transform="translate(0 -0.014)" fill="#988149"/>
    <path id="Path_4121" data-name="Path 4121" d="M65.794,16.132a1.494,1.494,0,0,0-.778.378l-.438.34,3.3,4.392.427-.332A1.316,1.316,0,0,0,68.9,20.1c.043-.321-.128-.7-.59-1.322l-1.278-1.709c-.5-.669-.847-.965-1.234-.94Z" transform="translate(-46.577 0)" fill="#988149"/>
  </g>
</svg>
