<svg xmlns="http://www.w3.org/2000/svg" width="17" height="16.413" viewBox="0 0 17 16.413">
  <path id="megaphone" d="M13.864,17.676a17.443,17.443,0,0,0-7.266,1.9L3.774,21.208a1.56,1.56,0,0,1-2.13-.571L.208,18.151a1.561,1.561,0,0,1,.571-2.13l2.34-1.351a.283.283,0,0,1,.387.1l1.839,3.185a.283.283,0,0,0,.394.1.291.291,0,0,0,.091-.393L3.978,14.457a.283.283,0,0,1,.084-.374A17.438,17.438,0,0,0,8.883,9.049a1.186,1.186,0,0,1,2.03.04L14.845,15.9A1.186,1.186,0,0,1,13.864,17.676Zm.5-4.742a1.773,1.773,0,0,0-1.132-1.954.283.283,0,0,0-.341.409l.948,1.641A.284.284,0,0,0,14.368,12.933ZM7.828,22.959,6.483,20.625a.283.283,0,0,0-.387-.1l-1.728,1a.284.284,0,0,0-.1.387l1.347,2.333a.921.921,0,0,0,.8.461c.307,0,.424-.1,1.081-.483A.922.922,0,0,0,7.828,22.959Zm8.609-12.18a.283.283,0,0,0-.283-.491l-.733.423a.284.284,0,0,0,.142.529C15.664,11.24,15.643,11.237,16.437,10.779ZM13.832,9.311l.179-.667a.283.283,0,1,0-.547-.147l-.179.667a.283.283,0,1,0,.547.147ZM16.99,13.8a.283.283,0,0,0-.2-.347l-.667-.179a.283.283,0,1,0-.147.547,4.593,4.593,0,0,0,.741.188A.284.284,0,0,0,16.99,13.8Z" transform="translate(0 -8.287)" fill="#988149"/>
</svg>
