<svg xmlns="http://www.w3.org/2000/svg" width="16.945" height="19.457" viewBox="0 0 16.945 19.457">
  <g id="sent_1_" data-name="sent (1)" transform="translate(-33.057)">
    <g id="Group_181" data-name="Group 181" transform="translate(33.057)">
      <g id="Group_180" data-name="Group 180">
        <path id="Path_235" data-name="Path 235" d="M276.532.547A1.1,1.1,0,0,0,275.584,0h-4.068V4.812H279Z" transform="translate(-262.454)" fill="#988149"/>
        <path id="Path_236" data-name="Path 236" d="M51.314,0H47.207a1.1,1.1,0,0,0-.948.548L43.8,4.812h7.513V0Z" transform="translate(-43.393)" fill="#988149"/>
        <path id="Path_237" data-name="Path 237" d="M33.057,156.648v12.163a1.343,1.343,0,0,0,1.341,1.341H48.66A1.343,1.343,0,0,0,50,168.811V156.648Zm11.061,5.115-2.949,2.949a.569.569,0,0,1-.806,0l-1.383-1.382a.57.57,0,1,1,.807-.806l.979.979,2.546-2.546a.57.57,0,1,1,.806.806Z" transform="translate(-33.057 -150.695)" fill="#988149"/>
      </g>
    </g>
  </g>
</svg>
