<svg xmlns="http://www.w3.org/2000/svg" width="17" height="16.054" viewBox="0 0 17 16.054">
  <path id="Shop_2_" d="M23.442,17.6v8.027a.423.423,0,0,1-.422.422h-7.6V19.717a.423.423,0,0,0-.422-.422h-3.38a.423.423,0,0,0-.422.422v6.337H9.5a.423.423,0,0,1-.422-.422V17.6h.144a1.9,1.9,0,0,0,1.534-.782.166.166,0,0,1,.021.032,1.893,1.893,0,0,0,1.515.75h.532a1.9,1.9,0,0,0,1.555-.807c.027.034.055.07.084.1a2.11,2.11,0,0,0,1.574.7h.448a2.11,2.11,0,0,0,1.574-.7c.03-.034.057-.07.084-.1A1.9,1.9,0,0,0,19.7,17.6h.532a1.893,1.893,0,0,0,1.515-.75.166.166,0,0,1,.021-.032A1.9,1.9,0,0,0,23.3,17.6ZM21.329,23.1v-3.38a.423.423,0,0,0-.422-.422H17.95a.423.423,0,0,0-.422.422V23.1a.423.423,0,0,0,.422.422h2.957A.423.423,0,0,0,21.329,23.1ZM10.746,10a.845.845,0,0,0-.772.5L7.853,15.274a1.038,1.038,0,0,0,.1,1.035,1.1,1.1,0,0,0,.907.45h.36a1.061,1.061,0,0,0,1.018-.773l.978-3.525L11.9,10Zm2.032,0-1.506,5.42a1.056,1.056,0,0,0,1.018,1.339h.532a1.053,1.053,0,0,0,1.05-.94L14.521,10Zm4.37,0H15.37l-.6,5.353a1.273,1.273,0,0,0,.317.984,1.25,1.25,0,0,0,.944.422h.448a1.25,1.25,0,0,0,.944-.422,1.273,1.273,0,0,0,.317-.984Zm2.592,0H18l.648,5.819a1.053,1.053,0,0,0,1.05.94h.532a1.056,1.056,0,0,0,1.018-1.339Zm2.8.5a.845.845,0,0,0-.772-.5H20.617l.684,2.461.978,3.525a1.061,1.061,0,0,0,1.018.773h.36a1.1,1.1,0,0,0,.907-.45,1.038,1.038,0,0,0,.1-1.035Z" transform="translate(-7.76 -10)" fill="#988149"/>
</svg>
