<svg id="store_4_" data-name="store (4)" xmlns="http://www.w3.org/2000/svg" width="17" height="17" viewBox="0 0 17 17">
  <path id="Path_244" data-name="Path 244" d="M16.083,20.417H1.208a.708.708,0,1,1,0-1.417H16.083a.708.708,0,0,1,0,1.417Z" transform="translate(-0.146 -5.542)" fill="#988149"/>
  <path id="Path_245" data-name="Path 245" d="M16.083,9.417H1.208A.708.708,0,1,1,1.208,8H16.083a.708.708,0,0,1,0,1.417Z" transform="translate(-0.146 -2.333)" fill="#988149"/>
  <path id="Path_246" data-name="Path 246" d="M.708,17A.709.709,0,0,1,0,16.292V.708a.708.708,0,0,1,1.417,0V16.292A.709.709,0,0,1,.708,17Z" fill="#988149"/>
  <path id="Path_247" data-name="Path 247" d="M22.708,17A.709.709,0,0,1,22,16.292V.708a.708.708,0,1,1,1.417,0V16.292A.709.709,0,0,1,22.708,17Z" transform="translate(-6.417)" fill="#988149"/>
  <path id="Path_248" data-name="Path 248" d="M6.656,13v.531a.531.531,0,0,1-1.062,0V13H4.354A.354.354,0,0,0,4,13.354v2.833a.354.354,0,0,0,.354.354H7.9a.354.354,0,0,0,.354-.354V13.354A.354.354,0,0,0,7.9,13Z" transform="translate(-1.167 -3.792)" fill="#988149"/>
  <path id="Path_249" data-name="Path 249" d="M15.01,12v.531a.531.531,0,0,1-1.062,0V12H12.354a.354.354,0,0,0-.354.354V15.9a.354.354,0,0,0,.354.354H16.6a.354.354,0,0,0,.354-.354V12.354A.354.354,0,0,0,16.6,12Z" transform="translate(-3.5 -3.5)" fill="#988149"/>
  <path id="Path_250" data-name="Path 250" d="M8.365,2v.531a.531.531,0,1,1-1.062,0V2H5.354A.354.354,0,0,0,5,2.354V5.188a.354.354,0,0,0,.354.354h4.958a.354.354,0,0,0,.354-.354V2.354A.354.354,0,0,0,10.312,2Z" transform="translate(-1.458 -0.583)" fill="#988149"/>
</svg>
