<svg id="XMLID_1_" xmlns="http://www.w3.org/2000/svg" width="17" height="17" viewBox="0 0 17 17">
  <path id="XMLID_9_" d="M15,278h9v-8H15Zm6-6.5h1v1H21Zm0,2h1v1H21Zm0,2h1v1H21Zm-2-4h1v1H19Zm0,2h1v1H19Zm0,2h1v1H19Zm-2-4h1v1H17Zm0,2h1v1H17Zm0,2h1v1H17Z" transform="translate(-14.5 -261)" fill="#988149"/>
  <path id="XMLID_8_" d="M320.5,285H315v2h6.5v-1A1,1,0,0,0,320.5,285Z" transform="translate(-304.5 -275.5)" fill="#988149"/>
  <path id="XMLID_7_" d="M315,378.5h5.5a1,1,0,0,0,1-1V375H315Z" transform="translate(-304.5 -362.5)" fill="#988149"/>
  <path id="XMLID_3_" d="M7.5,62H8v1H2V62h.5V60H0v5.618L.191,66H9.809L10,65.618V60H7.5ZM5,65H2V64H5Zm2,0H6V64H7Z" transform="translate(0 -58)" fill="#988149"/>
  <path id="XMLID_2_" d="M105,0h3V4h-3Z" transform="translate(-101.5)" fill="#988149"/>
</svg>
