<svg xmlns="http://www.w3.org/2000/svg" width="72" height="72" viewBox="0 0 72 72">
  <g id="Group_2926" data-name="Group 2926" transform="translate(-443 -237)">
    <circle id="Ellipse_7" data-name="Ellipse 7" cx="36" cy="36" r="36" transform="translate(443 237)" fill="#f8d5cf"/>
    <g id="list" transform="translate(460 254)">
      <path id="Path_214" data-name="Path 214" d="M31.3,3H6.691A3.691,3.691,0,0,0,3,6.691V31.3a3.691,3.691,0,0,0,3.691,3.691H31.3A3.691,3.691,0,0,0,34.991,31.3V6.691A3.691,3.691,0,0,0,31.3,3ZM9.152,16.535h2.461a1.23,1.23,0,0,1,1.23,1.23v2.461a1.23,1.23,0,0,1-1.23,1.23H9.152a1.23,1.23,0,0,1-1.23-1.23V17.765A1.23,1.23,0,0,1,9.152,16.535Zm-1.23-3.691V10.383a1.23,1.23,0,0,1,1.23-1.23h2.461a1.23,1.23,0,0,1,1.23,1.23v2.461a1.23,1.23,0,0,1-1.23,1.23H9.152A1.23,1.23,0,0,1,7.922,12.843Zm1.23,11.074h2.461a1.23,1.23,0,0,1,1.23,1.23v2.461a1.23,1.23,0,0,1-1.23,1.23H9.152a1.23,1.23,0,0,1-1.23-1.23V25.148A1.23,1.23,0,0,1,9.152,23.917Zm7.383,1.23h12.3a1.23,1.23,0,1,1,0,2.461h-12.3a1.23,1.23,0,1,1,0-2.461ZM15.3,19a1.23,1.23,0,0,1,1.23-1.23h12.3a1.23,1.23,0,1,1,0,2.461h-12.3A1.23,1.23,0,0,1,15.3,19Zm13.535-6.152h-12.3a1.23,1.23,0,1,1,0-2.461h12.3a1.23,1.23,0,1,1,0,2.461Z" fill="#f8664d"/>
    </g>
  </g>
</svg>
