<svg xmlns="http://www.w3.org/2000/svg" width="72" height="72" viewBox="0 0 72 72">
  <g id="Group_2928" data-name="Group 2928" transform="translate(24191.999 118)">
    <g id="Group_2927" data-name="Group 2927">
      <circle id="Ellipse_157" data-name="Ellipse 157" cx="36" cy="36" r="36" transform="translate(-24192 -118)" fill="#cbf0f4"/>
      <g id="customer" transform="translate(-24174 -130.991)">
        <circle id="Ellipse_8" data-name="Ellipse 8" cx="6.229" cy="6.229" r="6.229" transform="translate(12.269 32.991)" fill="#26bfd1"/>
        <circle id="Ellipse_9" data-name="Ellipse 9" cx="3.893" cy="3.893" r="3.893" transform="translate(27.063 37.663)" fill="#26bfd1"/>
        <circle id="Ellipse_10" data-name="Ellipse 10" cx="3.893" cy="3.893" r="3.893" transform="translate(2.147 37.663)" fill="#26bfd1"/>
        <path id="Path_215" data-name="Path 215" d="M9.7,241.648c-1.564-1.282-2.981-1.112-4.79-1.112A4.9,4.9,0,0,0,0,245.412V253.3a2.123,2.123,0,0,0,2.125,2.117c5.06,0,4.45.092,4.45-.218C6.575,249.611,5.913,245.51,9.7,241.648Z" transform="translate(0 -192.795)" fill="#26bfd1"/>
        <path id="Path_216" data-name="Path 216" d="M131.719,239.935c-3.159-.264-5.906,0-8.274,1.958-3.964,3.175-3.2,7.45-3.2,12.68a2.535,2.535,0,0,0,2.53,2.53c15.252,0,15.859.492,16.764-1.511.3-.677.215-.462.215-6.942C139.753,243.5,135.3,239.935,131.719,239.935Z" transform="translate(-111.5 -192.166)" fill="#26bfd1"/>
        <path id="Path_217" data-name="Path 217" d="M382.6,240.537c-1.819,0-3.228-.168-4.79,1.112,3.755,3.834,3.121,7.655,3.121,13.555,0,.312-.506.218,4.375.218a2.2,2.2,0,0,0,2.2-2.192v-7.816A4.9,4.9,0,0,0,382.6,240.537Z" transform="translate(-350.51 -192.797)" fill="#26bfd1"/>
      </g>
    </g>
  </g>
</svg>
