<svg xmlns="http://www.w3.org/2000/svg" width="72" height="72" viewBox="0 0 72 72">
  <g id="Group_2929" data-name="Group 2929" transform="translate(24076 118)">
    <circle id="Ellipse_158" data-name="Ellipse 158" cx="36" cy="36" r="36" transform="translate(-24076 -118)" fill="#d0d4e1"/>
    <g id="_02-shop" data-name="02-shop" transform="translate(-24056 -98)">
      <g id="Glyph" transform="translate(0 0)">
        <path id="Path_218" data-name="Path 218" d="M31.994,32H0v1.333A2.667,2.667,0,0,0,2.667,36h4a2.667,2.667,0,0,0,2.667-2.667A2.667,2.667,0,0,0,12,36h8a2.667,2.667,0,0,0,2.667-2.667A2.667,2.667,0,0,0,25.333,36h4A2.667,2.667,0,0,0,32,33.333V32Z" transform="translate(0 -21.333)" fill="#4f5565"/>
        <path id="Path_219" data-name="Path 219" d="M75.458,9.333,73.068.967A1.333,1.333,0,0,0,71.786,0H65.679l1.867,9.333Z" transform="translate(-43.786 0)" fill="#4f5565"/>
        <path id="Path_220" data-name="Path 220" d="M10.762,0H4.655A1.333,1.333,0,0,0,3.373.967L.983,9.333H8.9Z" transform="translate(-0.655 0)" fill="#4f5565"/>
        <path id="Path_221" data-name="Path 221" d="M41.093,0H34.746L32.879,9.333H42.96Z" transform="translate(-21.919 0)" fill="#4f5565"/>
        <path id="Path_222" data-name="Path 222" d="M28,45.958a3.984,3.984,0,0,1-2.667-1.021,3.984,3.984,0,0,1-2.667,1.021h-8A3.984,3.984,0,0,1,12,44.937a3.984,3.984,0,0,1-2.667,1.021h-4A3.974,3.974,0,0,1,4,45.725v14.9a1.333,1.333,0,0,0,1.333,1.333H8v-12a1.333,1.333,0,0,1,1.333-1.333H16a1.333,1.333,0,0,1,1.333,1.333v12H32a1.333,1.333,0,0,0,1.333-1.333v-14.9A3.974,3.974,0,0,1,32,45.958Zm1.333,8A1.333,1.333,0,0,1,28,55.291H21.333A1.333,1.333,0,0,1,20,53.958v-4a1.333,1.333,0,0,1,1.333-1.333H28a1.333,1.333,0,0,1,1.333,1.333Z" transform="translate(-2.667 -29.958)" fill="#4f5565"/>
      </g>
    </g>
  </g>
</svg>
