<svg xmlns="http://www.w3.org/2000/svg" width="72" height="72" viewBox="0 0 72 72">
  <g id="Group_2931" data-name="Group 2931" transform="translate(-443 -413)">
    <circle id="Ellipse_7" data-name="Ellipse 7" cx="36" cy="36" r="36" transform="translate(443 413)" fill="#f5bac3"/>
    <g id="discount" transform="translate(453.641 433.002)">
      <g id="Group_161" data-name="Group 161" transform="translate(10.359 -0.002)">
        <g id="Group_160" data-name="Group 160" transform="translate(0 0)">
          <path id="Path_223" data-name="Path 223" d="M39.584,16.413a.938.938,0,0,1,0-.829l1.193-2.442a2.778,2.778,0,0,0-1.2-3.689l-2.4-1.274a.938.938,0,0,1-.487-.671l-.469-2.677a2.778,2.778,0,0,0-3.138-2.28l-2.691.381a.938.938,0,0,1-.788-.256L27.651.787a2.778,2.778,0,0,0-3.879,0l-1.953,1.89a.938.938,0,0,1-.788.256L18.34,2.552A2.778,2.778,0,0,0,15.2,4.832l-.469,2.677a.938.938,0,0,1-.487.671l-2.4,1.274a2.778,2.778,0,0,0-1.2,3.689l1.193,2.441a.938.938,0,0,1,0,.829l-1.193,2.441a2.778,2.778,0,0,0,1.2,3.689l2.4,1.274a.938.938,0,0,1,.487.671l.469,2.677a2.776,2.776,0,0,0,2.738,2.308,2.854,2.854,0,0,0,.4-.028l2.691-.381a.938.938,0,0,1,.788.256l1.953,1.889a2.778,2.778,0,0,0,3.879,0L29.6,29.32a.939.939,0,0,1,.788-.256l2.691.381a2.778,2.778,0,0,0,3.138-2.28l.47-2.677a.938.938,0,0,1,.487-.671l2.4-1.274a2.778,2.778,0,0,0,1.2-3.689ZM22.02,7.693a3.384,3.384,0,1,1-3.384,3.384A3.388,3.388,0,0,1,22.02,7.693ZM20.274,22.741a.923.923,0,0,1-1.3-1.305l12.18-12.18a.923.923,0,1,1,1.305,1.305ZM29.4,24.3a3.384,3.384,0,1,1,3.384-3.384A3.388,3.388,0,0,1,29.4,24.3Z" transform="translate(-10.359 0.002)" fill="#c2394e"/>
        </g>
      </g>
      <g id="Group_163" data-name="Group 163" transform="translate(27.865 19.382)">
        <g id="Group_162" data-name="Group 162" transform="translate(0)">
          <path id="Path_224" data-name="Path 224" d="M291.99,310.141a1.538,1.538,0,1,0,1.538,1.538A1.54,1.54,0,0,0,291.99,310.141Z" transform="translate(-290.452 -310.141)" fill="#c2394e"/>
        </g>
      </g>
      <g id="Group_165" data-name="Group 165" transform="translate(20.482 9.539)">
        <g id="Group_164" data-name="Group 164">
          <path id="Path_225" data-name="Path 225" d="M173.871,152.646a1.538,1.538,0,1,0,1.538,1.538A1.54,1.54,0,0,0,173.871,152.646Z" transform="translate(-172.333 -152.646)" fill="#c2394e"/>
        </g>
      </g>
    </g>
  </g>
</svg>
