<svg xmlns="http://www.w3.org/2000/svg" width="72" height="72" viewBox="0 0 72 72">
  <g id="Group_2933" data-name="Group 2933" transform="translate(-833 -413)">
    <circle id="Ellipse_7" data-name="Ellipse 7" cx="36" cy="36" r="36" transform="translate(833 413)" fill="#f1d7b9"/>
    <g id="sales" transform="translate(848 375.021)">
      <g id="Group_166" data-name="Group 166" transform="translate(4.877 66.525)">
        <path id="Path_226" data-name="Path 226" d="M66.906,215.641H60.195V200.635a.676.676,0,0,1,.676-.676h5.358a.676.676,0,0,1,.676.676Z" transform="translate(-60.195 -197.001)" fill="#988149"/>
        <path id="Path_227" data-name="Path 227" d="M220.75,182.092h-6.711V164.129a.676.676,0,0,1,.676-.676h5.358a.676.676,0,0,1,.676.676Z" transform="translate(-201.574 -163.453)" fill="#988149"/>
        <path id="Path_228" data-name="Path 228" d="M374.594,227.868h-6.711V213.94a.676.676,0,0,1,.676-.676h5.358a.676.676,0,0,1,.676.676Z" transform="translate(-342.953 -209.228)" fill="#988149"/>
      </g>
      <g id="Group_167" data-name="Group 167" transform="translate(0 87.548)">
        <path id="Path_229" data-name="Path 229" d="M40.18,425.353H1.215a1.215,1.215,0,1,1,0-2.431H40.18a1.215,1.215,0,1,1,0,2.431Z" transform="translate(0 -422.922)" fill="#988149"/>
      </g>
      <path id="Path_230" data-name="Path 230" d="M51.785,62.6a1.217,1.217,0,0,0-.934-1.289l-3.927-.954a1.215,1.215,0,1,0-.574,2.362l1.111.27-3.148,1.943-11.938-6.8a1.215,1.215,0,0,0-1.118-.044l-11.866,5.57-5.673-3.54a1.215,1.215,0,1,0-1.287,2.062l6.234,3.89a1.215,1.215,0,0,0,1.16.069L31.72,60.562,43.736,67.4a1.255,1.255,0,0,0,1.24-.022l3.817-2.355-.254,1.19a1.216,1.216,0,0,0,2.377.508l.842-3.945a1.413,1.413,0,0,0,.027-.175Z" transform="translate(-10.898)" fill="#988149"/>
    </g>
  </g>
</svg>
