<svg xmlns="http://www.w3.org/2000/svg" width="72" height="72" viewBox="0 0 72 72">
  <g id="Group_2935" data-name="Group 2935" transform="translate(-1227 -407)">
    <circle id="Ellipse_7" data-name="Ellipse 7" cx="36" cy="36" r="36" transform="translate(1227 407)" fill="#fbf1ab"/>
    <g id="money" transform="translate(1247 426.994)">
      <g id="Group_169" data-name="Group 169" transform="translate(0.001 14.865)">
        <g id="Group_168" data-name="Group 168">
          <path id="Path_231" data-name="Path 231" d="M.437,238.933a.667.667,0,0,0-.4.853l.419,1.152,3.188-3.188Z" transform="translate(-0.001 -237.75)" fill="#d5be1d"/>
        </g>
      </g>
      <g id="Group_171" data-name="Group 171" transform="translate(3.454 26.287)">
        <g id="Group_170" data-name="Group 170">
          <path id="Path_232" data-name="Path 232" d="M55.257,420.513l1.92,5.28a.661.661,0,0,0,.345.376.671.671,0,0,0,.281.063.653.653,0,0,0,.231-.041l2.119-.781Z" transform="translate(-55.257 -420.513)" fill="#d5be1d"/>
        </g>
      </g>
      <g id="Group_173" data-name="Group 173" transform="translate(17.799 15.738)">
        <g id="Group_172" data-name="Group 172">
          <path id="Path_233" data-name="Path 233" d="M298.944,257.765l-2.2-6.041L291.474,257l2.613-.963a.667.667,0,1,1,.461,1.251l-3.32,1.224a.666.666,0,0,1-.856-.395s0-.008,0-.012l-5.588,5.588,13.765-5.072A.665.665,0,0,0,298.944,257.765Z" transform="translate(-284.783 -251.724)" fill="#d5be1d"/>
        </g>
      </g>
      <g id="Group_175" data-name="Group 175" transform="translate(0.002 0.006)">
        <g id="Group_174" data-name="Group 174" transform="translate(0 0)">
          <path id="Path_234" data-name="Path 234" d="M31.823,10.868,21.156.2a.667.667,0,0,0-.943,0l-20,20a.667.667,0,0,0,0,.943L10.881,31.81a.66.66,0,0,0,.471.2.669.669,0,0,0,.472-.195l20-20A.669.669,0,0,0,31.823,10.868Zm-24,7.611L5.157,21.145a.667.667,0,0,1-.944-.943l2.667-2.667a.667.667,0,0,1,.944.943Zm11.513.847a2.517,2.517,0,0,1-1.827.7A5.509,5.509,0,0,1,13.8,18.253a6.108,6.108,0,0,1-1.665-2.837,2.785,2.785,0,0,1,.593-2.7,2.777,2.777,0,0,1,2.7-.593,6.1,6.1,0,0,1,2.837,1.665C20.116,15.641,20.588,18.073,19.336,19.325Zm8.487-7.513-2.667,2.667a.667.667,0,0,1-.944-.943l2.667-2.667a.667.667,0,0,1,.944.943Z" transform="translate(-0.019 -0.006)" fill="#d5be1d"/>
        </g>
      </g>
    </g>
  </g>
</svg>
